<mxfile host="app.diagrams.net" agent="Mozilla/5.0 (Windows NT 10.0; Win64; x64) AppleWebKit/537.36 (KHTML, like Gecko) Chrome/131.0.0.0 Safari/537.36" version="24.9.0" pages="3">
  <diagram name="SD UC1" id="UHtwvV7Q3UJnDrzv-0JF">
    <mxGraphModel dx="1032" dy="446" grid="1" gridSize="10" guides="1" tooltips="1" connect="1" arrows="1" fold="1" page="1" pageScale="1" pageWidth="827" pageHeight="1169" math="0" shadow="0">
      <root>
        <mxCell id="0" />
        <mxCell id="1" parent="0" />
        <mxCell id="fYFEWOZhc2wbTwGJsDS--7" style="edgeStyle=orthogonalEdgeStyle;rounded=0;orthogonalLoop=1;jettySize=auto;html=1;dashed=1;endArrow=none;endFill=0;" parent="1" source="fYFEWOZhc2wbTwGJsDS--1" edge="1">
          <mxGeometry relative="1" as="geometry">
            <mxPoint x="140" y="560" as="targetPoint" />
          </mxGeometry>
        </mxCell>
        <mxCell id="fYFEWOZhc2wbTwGJsDS--1" value=": SummaryWindow" style="rounded=0;whiteSpace=wrap;html=1;" parent="1" vertex="1">
          <mxGeometry x="80" y="130" width="120" height="60" as="geometry" />
        </mxCell>
        <mxCell id="fYFEWOZhc2wbTwGJsDS--8" style="edgeStyle=orthogonalEdgeStyle;rounded=0;orthogonalLoop=1;jettySize=auto;html=1;dashed=1;endArrow=none;endFill=0;" parent="1" source="fYFEWOZhc2wbTwGJsDS--9" edge="1">
          <mxGeometry relative="1" as="geometry">
            <mxPoint x="460" y="560" as="targetPoint" />
          </mxGeometry>
        </mxCell>
        <mxCell id="fYFEWOZhc2wbTwGJsDS--9" value=": SummaryVM" style="rounded=0;whiteSpace=wrap;html=1;" parent="1" vertex="1">
          <mxGeometry x="400" y="130" width="120" height="60" as="geometry" />
        </mxCell>
        <mxCell id="fYFEWOZhc2wbTwGJsDS--15" style="edgeStyle=orthogonalEdgeStyle;rounded=0;orthogonalLoop=1;jettySize=auto;html=1;dashed=1;endArrow=none;endFill=0;" parent="1" source="fYFEWOZhc2wbTwGJsDS--16" edge="1">
          <mxGeometry relative="1" as="geometry">
            <mxPoint x="780" y="560" as="targetPoint" />
          </mxGeometry>
        </mxCell>
        <mxCell id="fYFEWOZhc2wbTwGJsDS--16" value=": FacilityRepo" style="rounded=0;whiteSpace=wrap;html=1;" parent="1" vertex="1">
          <mxGeometry x="720" y="130" width="120" height="60" as="geometry" />
        </mxCell>
        <mxCell id="fYFEWOZhc2wbTwGJsDS--17" style="edgeStyle=orthogonalEdgeStyle;rounded=0;orthogonalLoop=1;jettySize=auto;html=1;dashed=1;endArrow=none;endFill=0;" parent="1" source="fYFEWOZhc2wbTwGJsDS--18" edge="1">
          <mxGeometry relative="1" as="geometry">
            <mxPoint x="1100" y="560" as="targetPoint" />
          </mxGeometry>
        </mxCell>
        <mxCell id="fYFEWOZhc2wbTwGJsDS--18" value=": FacilityDB" style="rounded=0;whiteSpace=wrap;html=1;" parent="1" vertex="1">
          <mxGeometry x="1040" y="130" width="120" height="60" as="geometry" />
        </mxCell>
        <mxCell id="fYFEWOZhc2wbTwGJsDS--25" value="openSummary" style="html=1;verticalAlign=bottom;startArrow=oval;startFill=1;endArrow=block;startSize=8;curved=0;rounded=0;" parent="1" target="fYFEWOZhc2wbTwGJsDS--26" edge="1">
          <mxGeometry width="60" relative="1" as="geometry">
            <mxPoint x="10" y="220" as="sourcePoint" />
            <mxPoint x="100" y="230" as="targetPoint" />
            <Array as="points">
              <mxPoint x="110" y="220" />
            </Array>
          </mxGeometry>
        </mxCell>
        <mxCell id="fYFEWOZhc2wbTwGJsDS--26" value="" style="html=1;points=[[0,0,0,0,5],[0,1,0,0,-5],[1,0,0,0,5],[1,1,0,0,-5]];perimeter=orthogonalPerimeter;outlineConnect=0;targetShapes=umlLifeline;portConstraint=eastwest;newEdgeStyle={&quot;curved&quot;:0,&quot;rounded&quot;:0};" parent="1" vertex="1">
          <mxGeometry x="135" y="220" width="10" height="290" as="geometry" />
        </mxCell>
        <mxCell id="fYFEWOZhc2wbTwGJsDS--37" value="" style="html=1;points=[[0,0,0,0,5],[0,1,0,0,-5],[1,0,0,0,5],[1,1,0,0,-5]];perimeter=orthogonalPerimeter;outlineConnect=0;targetShapes=umlLifeline;portConstraint=eastwest;newEdgeStyle={&quot;curved&quot;:0,&quot;rounded&quot;:0};" parent="1" vertex="1">
          <mxGeometry x="455" y="240" width="10" height="240" as="geometry" />
        </mxCell>
        <mxCell id="fYFEWOZhc2wbTwGJsDS--38" value="" style="endArrow=classic;html=1;rounded=0;" parent="1" target="fYFEWOZhc2wbTwGJsDS--37" edge="1">
          <mxGeometry width="50" height="50" relative="1" as="geometry">
            <mxPoint x="145" y="239.99999999999997" as="sourcePoint" />
            <mxPoint x="340" y="239.99999999999997" as="targetPoint" />
          </mxGeometry>
        </mxCell>
        <mxCell id="fYFEWOZhc2wbTwGJsDS--40" value="ShowFacilities()" style="edgeLabel;html=1;align=center;verticalAlign=middle;resizable=0;points=[];" parent="fYFEWOZhc2wbTwGJsDS--38" vertex="1" connectable="0">
          <mxGeometry x="-0.2141" y="-2" relative="1" as="geometry">
            <mxPoint x="23" y="-12" as="offset" />
          </mxGeometry>
        </mxCell>
        <mxCell id="fYFEWOZhc2wbTwGJsDS--41" value="" style="endArrow=open;html=1;rounded=0;dashed=1;dashPattern=8 8;endFill=0;" parent="1" edge="1">
          <mxGeometry width="50" height="50" relative="1" as="geometry">
            <mxPoint x="455" y="480" as="sourcePoint" />
            <mxPoint x="145" y="480" as="targetPoint" />
          </mxGeometry>
        </mxCell>
        <mxCell id="fYFEWOZhc2wbTwGJsDS--42" value="ObservableCollection&amp;lt;Facility&amp;gt;" style="edgeLabel;html=1;align=center;verticalAlign=middle;resizable=0;points=[];" parent="fYFEWOZhc2wbTwGJsDS--41" vertex="1" connectable="0">
          <mxGeometry x="0.1619" relative="1" as="geometry">
            <mxPoint x="8" y="-10" as="offset" />
          </mxGeometry>
        </mxCell>
        <mxCell id="fYFEWOZhc2wbTwGJsDS--43" value="" style="endArrow=classic;html=1;rounded=0;" parent="1" target="fYFEWOZhc2wbTwGJsDS--47" edge="1">
          <mxGeometry width="50" height="50" relative="1" as="geometry">
            <mxPoint x="465" y="260" as="sourcePoint" />
            <mxPoint x="740" y="260" as="targetPoint" />
          </mxGeometry>
        </mxCell>
        <mxCell id="fYFEWOZhc2wbTwGJsDS--44" value="GetFacilities()" style="edgeLabel;html=1;align=center;verticalAlign=middle;resizable=0;points=[];" parent="fYFEWOZhc2wbTwGJsDS--43" vertex="1" connectable="0">
          <mxGeometry x="-0.3552" y="-2" relative="1" as="geometry">
            <mxPoint x="44" y="-12" as="offset" />
          </mxGeometry>
        </mxCell>
        <mxCell id="fYFEWOZhc2wbTwGJsDS--45" value="" style="endArrow=open;html=1;rounded=0;dashed=1;dashPattern=8 8;endFill=0;" parent="1" edge="1">
          <mxGeometry width="50" height="50" relative="1" as="geometry">
            <mxPoint x="775" y="440" as="sourcePoint" />
            <mxPoint x="465" y="440" as="targetPoint" />
          </mxGeometry>
        </mxCell>
        <mxCell id="fYFEWOZhc2wbTwGJsDS--46" value="ObservableCollection&amp;lt;Facility&amp;gt;" style="edgeLabel;html=1;align=center;verticalAlign=middle;resizable=0;points=[];" parent="fYFEWOZhc2wbTwGJsDS--45" vertex="1" connectable="0">
          <mxGeometry x="0.1619" relative="1" as="geometry">
            <mxPoint x="8" y="-10" as="offset" />
          </mxGeometry>
        </mxCell>
        <mxCell id="fYFEWOZhc2wbTwGJsDS--47" value="" style="html=1;points=[[0,0,0,0,5],[0,1,0,0,-5],[1,0,0,0,5],[1,1,0,0,-5]];perimeter=orthogonalPerimeter;outlineConnect=0;targetShapes=umlLifeline;portConstraint=eastwest;newEdgeStyle={&quot;curved&quot;:0,&quot;rounded&quot;:0};" parent="1" vertex="1">
          <mxGeometry x="775" y="260" width="10" height="180" as="geometry" />
        </mxCell>
        <mxCell id="fYFEWOZhc2wbTwGJsDS--48" value="" style="endArrow=classic;html=1;rounded=0;" parent="1" target="fYFEWOZhc2wbTwGJsDS--50" edge="1">
          <mxGeometry width="50" height="50" relative="1" as="geometry">
            <mxPoint x="785" y="270" as="sourcePoint" />
            <mxPoint x="1040" y="270" as="targetPoint" />
          </mxGeometry>
        </mxCell>
        <mxCell id="fYFEWOZhc2wbTwGJsDS--49" value="ReadFacilities()" style="edgeLabel;html=1;align=center;verticalAlign=middle;resizable=0;points=[];" parent="fYFEWOZhc2wbTwGJsDS--48" vertex="1" connectable="0">
          <mxGeometry x="-0.3552" y="-2" relative="1" as="geometry">
            <mxPoint x="44" y="-12" as="offset" />
          </mxGeometry>
        </mxCell>
        <mxCell id="fYFEWOZhc2wbTwGJsDS--50" value="" style="html=1;points=[[0,0,0,0,5],[0,1,0,0,-5],[1,0,0,0,5],[1,1,0,0,-5]];perimeter=orthogonalPerimeter;outlineConnect=0;targetShapes=umlLifeline;portConstraint=eastwest;newEdgeStyle={&quot;curved&quot;:0,&quot;rounded&quot;:0};" parent="1" vertex="1">
          <mxGeometry x="1095" y="270" width="10" height="30" as="geometry" />
        </mxCell>
        <mxCell id="fYFEWOZhc2wbTwGJsDS--51" value="" style="endArrow=open;html=1;rounded=0;dashed=1;dashPattern=8 8;endFill=0;" parent="1" edge="1">
          <mxGeometry width="50" height="50" relative="1" as="geometry">
            <mxPoint x="1095" y="300" as="sourcePoint" />
            <mxPoint x="785" y="300" as="targetPoint" />
          </mxGeometry>
        </mxCell>
        <mxCell id="fYFEWOZhc2wbTwGJsDS--55" value="" style="html=1;points=[[0,0,0,0,5],[0,1,0,0,-5],[1,0,0,0,5],[1,1,0,0,-5]];perimeter=orthogonalPerimeter;outlineConnect=0;targetShapes=umlLifeline;portConstraint=eastwest;newEdgeStyle={&quot;curved&quot;:0,&quot;rounded&quot;:0};" parent="1" vertex="1">
          <mxGeometry x="780" y="400" width="10" height="30" as="geometry" />
        </mxCell>
        <mxCell id="fYFEWOZhc2wbTwGJsDS--56" value="" style="endArrow=classic;html=1;rounded=0;" parent="1" target="fYFEWOZhc2wbTwGJsDS--55" edge="1">
          <mxGeometry width="50" height="50" relative="1" as="geometry">
            <mxPoint x="785" y="340" as="sourcePoint" />
            <mxPoint x="800" y="400" as="targetPoint" />
            <Array as="points">
              <mxPoint x="830" y="340" />
              <mxPoint x="830" y="400" />
            </Array>
          </mxGeometry>
        </mxCell>
        <mxCell id="fYFEWOZhc2wbTwGJsDS--57" value="CreateFacilitiesFromString()" style="edgeLabel;html=1;align=center;verticalAlign=middle;resizable=0;points=[];" parent="fYFEWOZhc2wbTwGJsDS--56" vertex="1" connectable="0">
          <mxGeometry x="-0.6417" y="-1" relative="1" as="geometry">
            <mxPoint x="99" y="24" as="offset" />
          </mxGeometry>
        </mxCell>
        <mxCell id="qwatKmPiRgpL-p0G8LSF-1" value="" style="html=1;points=[[0,0,0,0,5],[0,1,0,0,-5],[1,0,0,0,5],[1,1,0,0,-5]];perimeter=orthogonalPerimeter;outlineConnect=0;targetShapes=umlLifeline;portConstraint=eastwest;newEdgeStyle={&quot;curved&quot;:0,&quot;rounded&quot;:0};" vertex="1" parent="1">
          <mxGeometry x="775" y="865" width="10" height="175" as="geometry" />
        </mxCell>
        <mxCell id="qwatKmPiRgpL-p0G8LSF-2" style="edgeStyle=orthogonalEdgeStyle;rounded=0;orthogonalLoop=1;jettySize=auto;html=1;dashed=1;endArrow=none;endFill=0;" edge="1" parent="1" source="qwatKmPiRgpL-p0G8LSF-3">
          <mxGeometry relative="1" as="geometry">
            <mxPoint x="140" y="1220" as="targetPoint" />
          </mxGeometry>
        </mxCell>
        <mxCell id="qwatKmPiRgpL-p0G8LSF-3" value=": SummaryWindow" style="rounded=0;whiteSpace=wrap;html=1;" vertex="1" parent="1">
          <mxGeometry x="80" y="710" width="120" height="60" as="geometry" />
        </mxCell>
        <mxCell id="qwatKmPiRgpL-p0G8LSF-4" style="edgeStyle=orthogonalEdgeStyle;rounded=0;orthogonalLoop=1;jettySize=auto;html=1;dashed=1;endArrow=none;endFill=0;" edge="1" parent="1" source="qwatKmPiRgpL-p0G8LSF-5">
          <mxGeometry relative="1" as="geometry">
            <mxPoint x="330" y="1220" as="targetPoint" />
          </mxGeometry>
        </mxCell>
        <mxCell id="qwatKmPiRgpL-p0G8LSF-5" value=": SummaryVM" style="rounded=0;whiteSpace=wrap;html=1;" vertex="1" parent="1">
          <mxGeometry x="270" y="710" width="120" height="60" as="geometry" />
        </mxCell>
        <mxCell id="qwatKmPiRgpL-p0G8LSF-6" style="edgeStyle=orthogonalEdgeStyle;rounded=0;orthogonalLoop=1;jettySize=auto;html=1;dashed=1;endArrow=none;endFill=0;" edge="1" parent="1" source="qwatKmPiRgpL-p0G8LSF-1">
          <mxGeometry relative="1" as="geometry">
            <mxPoint x="780" y="1220" as="targetPoint" />
            <Array as="points">
              <mxPoint x="780" y="1220" />
            </Array>
          </mxGeometry>
        </mxCell>
        <mxCell id="qwatKmPiRgpL-p0G8LSF-7" value=": FacilityRepo" style="rounded=0;whiteSpace=wrap;html=1;" vertex="1" parent="1">
          <mxGeometry x="720" y="710" width="120" height="60" as="geometry" />
        </mxCell>
        <mxCell id="qwatKmPiRgpL-p0G8LSF-8" style="edgeStyle=orthogonalEdgeStyle;rounded=0;orthogonalLoop=1;jettySize=auto;html=1;dashed=1;endArrow=none;endFill=0;" edge="1" parent="1">
          <mxGeometry relative="1" as="geometry">
            <mxPoint x="1100" y="1220" as="targetPoint" />
            <mxPoint x="1100" y="770" as="sourcePoint" />
          </mxGeometry>
        </mxCell>
        <mxCell id="qwatKmPiRgpL-p0G8LSF-9" value="openSummary" style="html=1;verticalAlign=bottom;startArrow=oval;startFill=1;endArrow=block;startSize=8;curved=0;rounded=0;" edge="1" parent="1" target="qwatKmPiRgpL-p0G8LSF-10">
          <mxGeometry width="60" relative="1" as="geometry">
            <mxPoint x="10" y="800" as="sourcePoint" />
            <mxPoint x="100" y="810" as="targetPoint" />
            <Array as="points">
              <mxPoint x="110" y="800" />
            </Array>
          </mxGeometry>
        </mxCell>
        <mxCell id="qwatKmPiRgpL-p0G8LSF-10" value="" style="html=1;points=[[0,0,0,0,5],[0,1,0,0,-5],[1,0,0,0,5],[1,1,0,0,-5]];perimeter=orthogonalPerimeter;outlineConnect=0;targetShapes=umlLifeline;portConstraint=eastwest;newEdgeStyle={&quot;curved&quot;:0,&quot;rounded&quot;:0};" vertex="1" parent="1">
          <mxGeometry x="135" y="800" width="10" height="380" as="geometry" />
        </mxCell>
        <mxCell id="qwatKmPiRgpL-p0G8LSF-11" value="" style="html=1;points=[[0,0,0,0,5],[0,1,0,0,-5],[1,0,0,0,5],[1,1,0,0,-5]];perimeter=orthogonalPerimeter;outlineConnect=0;targetShapes=umlLifeline;portConstraint=eastwest;newEdgeStyle={&quot;curved&quot;:0,&quot;rounded&quot;:0};" vertex="1" parent="1">
          <mxGeometry x="325" y="820" width="10" height="340" as="geometry" />
        </mxCell>
        <mxCell id="qwatKmPiRgpL-p0G8LSF-12" value="" style="endArrow=classic;html=1;rounded=0;" edge="1" parent="1" target="qwatKmPiRgpL-p0G8LSF-11">
          <mxGeometry width="50" height="50" relative="1" as="geometry">
            <mxPoint x="145" y="820" as="sourcePoint" />
            <mxPoint x="340" y="820" as="targetPoint" />
          </mxGeometry>
        </mxCell>
        <mxCell id="qwatKmPiRgpL-p0G8LSF-13" value="ShowFacilities()" style="edgeLabel;html=1;align=center;verticalAlign=middle;resizable=0;points=[];" vertex="1" connectable="0" parent="qwatKmPiRgpL-p0G8LSF-12">
          <mxGeometry x="-0.2141" y="-2" relative="1" as="geometry">
            <mxPoint x="23" y="-12" as="offset" />
          </mxGeometry>
        </mxCell>
        <mxCell id="qwatKmPiRgpL-p0G8LSF-14" value="" style="endArrow=open;html=1;rounded=0;dashed=1;dashPattern=8 8;endFill=0;" edge="1" parent="1" target="qwatKmPiRgpL-p0G8LSF-10">
          <mxGeometry width="50" height="50" relative="1" as="geometry">
            <mxPoint x="325" y="1160" as="sourcePoint" />
            <mxPoint x="160" y="1160" as="targetPoint" />
          </mxGeometry>
        </mxCell>
        <mxCell id="qwatKmPiRgpL-p0G8LSF-15" value="Update UI with results" style="edgeLabel;html=1;align=center;verticalAlign=middle;resizable=0;points=[];" vertex="1" connectable="0" parent="qwatKmPiRgpL-p0G8LSF-14">
          <mxGeometry x="0.1619" relative="1" as="geometry">
            <mxPoint x="8" y="-10" as="offset" />
          </mxGeometry>
        </mxCell>
        <mxCell id="qwatKmPiRgpL-p0G8LSF-16" value="" style="endArrow=classic;html=1;rounded=0;" edge="1" parent="1">
          <mxGeometry width="50" height="50" relative="1" as="geometry">
            <mxPoint x="525" y="864.5" as="sourcePoint" />
            <mxPoint x="780" y="864.5" as="targetPoint" />
          </mxGeometry>
        </mxCell>
        <mxCell id="qwatKmPiRgpL-p0G8LSF-17" value="GetAll()" style="edgeLabel;html=1;align=center;verticalAlign=middle;resizable=0;points=[];" vertex="1" connectable="0" parent="qwatKmPiRgpL-p0G8LSF-16">
          <mxGeometry x="-0.3552" y="-2" relative="1" as="geometry">
            <mxPoint x="44" y="-12" as="offset" />
          </mxGeometry>
        </mxCell>
        <mxCell id="qwatKmPiRgpL-p0G8LSF-18" value="" style="endArrow=open;html=1;rounded=0;dashed=1;dashPattern=8 8;endFill=0;" edge="1" parent="1">
          <mxGeometry width="50" height="50" relative="1" as="geometry">
            <mxPoint x="775" y="1040" as="sourcePoint" />
            <mxPoint x="520" y="1040" as="targetPoint" />
          </mxGeometry>
        </mxCell>
        <mxCell id="qwatKmPiRgpL-p0G8LSF-19" value="ObservableCollection&amp;lt;Facility&amp;gt;" style="edgeLabel;html=1;align=center;verticalAlign=middle;resizable=0;points=[];" vertex="1" connectable="0" parent="qwatKmPiRgpL-p0G8LSF-18">
          <mxGeometry x="0.1619" relative="1" as="geometry">
            <mxPoint x="8" y="-10" as="offset" />
          </mxGeometry>
        </mxCell>
        <mxCell id="qwatKmPiRgpL-p0G8LSF-20" value="" style="endArrow=classic;html=1;rounded=0;" edge="1" parent="1">
          <mxGeometry width="50" height="50" relative="1" as="geometry">
            <mxPoint x="785" y="880" as="sourcePoint" />
            <mxPoint x="1095" y="880" as="targetPoint" />
            <Array as="points">
              <mxPoint x="940" y="880" />
            </Array>
          </mxGeometry>
        </mxCell>
        <mxCell id="qwatKmPiRgpL-p0G8LSF-21" value="&lt;span data-teams=&quot;true&quot;&gt;SELECT * FROM vwFacility&lt;/span&gt;" style="edgeLabel;html=1;align=center;verticalAlign=middle;resizable=0;points=[];" vertex="1" connectable="0" parent="qwatKmPiRgpL-p0G8LSF-20">
          <mxGeometry x="-0.3552" y="-2" relative="1" as="geometry">
            <mxPoint x="44" y="-12" as="offset" />
          </mxGeometry>
        </mxCell>
        <mxCell id="qwatKmPiRgpL-p0G8LSF-22" value="" style="html=1;points=[[0,0,0,0,5],[0,1,0,0,-5],[1,0,0,0,5],[1,1,0,0,-5]];perimeter=orthogonalPerimeter;outlineConnect=0;targetShapes=umlLifeline;portConstraint=eastwest;newEdgeStyle={&quot;curved&quot;:0,&quot;rounded&quot;:0};" vertex="1" parent="1">
          <mxGeometry x="1095" y="880" width="10" height="30" as="geometry" />
        </mxCell>
        <mxCell id="qwatKmPiRgpL-p0G8LSF-23" value="" style="endArrow=open;html=1;rounded=0;dashed=1;dashPattern=8 8;endFill=0;" edge="1" parent="1">
          <mxGeometry width="50" height="50" relative="1" as="geometry">
            <mxPoint x="1095" y="910" as="sourcePoint" />
            <mxPoint x="785" y="910" as="targetPoint" />
          </mxGeometry>
        </mxCell>
        <mxCell id="qwatKmPiRgpL-p0G8LSF-24" value="" style="html=1;points=[[0,0,0,0,5],[0,1,0,0,-5],[1,0,0,0,5],[1,1,0,0,-5]];perimeter=orthogonalPerimeter;outlineConnect=0;targetShapes=umlLifeline;portConstraint=eastwest;newEdgeStyle={&quot;curved&quot;:0,&quot;rounded&quot;:0};" vertex="1" parent="1">
          <mxGeometry x="781" y="1000" width="10" height="30" as="geometry" />
        </mxCell>
        <mxCell id="qwatKmPiRgpL-p0G8LSF-25" value="" style="endArrow=classic;html=1;rounded=0;" edge="1" parent="1">
          <mxGeometry width="50" height="50" relative="1" as="geometry">
            <mxPoint x="785" y="940" as="sourcePoint" />
            <mxPoint x="790" y="1000" as="targetPoint" />
            <Array as="points">
              <mxPoint x="830" y="940" />
              <mxPoint x="830" y="1000" />
            </Array>
          </mxGeometry>
        </mxCell>
        <mxCell id="qwatKmPiRgpL-p0G8LSF-26" value="FromStringToType(SqlDataReader)" style="edgeLabel;html=1;align=center;verticalAlign=middle;resizable=0;points=[];" vertex="1" connectable="0" parent="qwatKmPiRgpL-p0G8LSF-25">
          <mxGeometry x="-0.6417" y="-1" relative="1" as="geometry">
            <mxPoint x="109" y="29" as="offset" />
          </mxGeometry>
        </mxCell>
        <mxCell id="qwatKmPiRgpL-p0G8LSF-27" value="DB" style="shape=cylinder3;whiteSpace=wrap;html=1;boundedLbl=1;backgroundOutline=1;size=15;" vertex="1" parent="1">
          <mxGeometry x="1070" y="700" width="60" height="80" as="geometry" />
        </mxCell>
        <mxCell id="qwatKmPiRgpL-p0G8LSF-28" value=": FacilityService" style="rounded=0;whiteSpace=wrap;html=1;" vertex="1" parent="1">
          <mxGeometry x="460" y="710" width="120" height="60" as="geometry" />
        </mxCell>
        <mxCell id="qwatKmPiRgpL-p0G8LSF-29" style="edgeStyle=orthogonalEdgeStyle;rounded=0;orthogonalLoop=1;jettySize=auto;html=1;dashed=1;endArrow=none;endFill=0;" edge="1" parent="1">
          <mxGeometry relative="1" as="geometry">
            <mxPoint x="520" y="1220" as="targetPoint" />
            <mxPoint x="519.5" y="770" as="sourcePoint" />
          </mxGeometry>
        </mxCell>
        <mxCell id="qwatKmPiRgpL-p0G8LSF-30" value="" style="endArrow=classic;html=1;rounded=0;" edge="1" parent="1">
          <mxGeometry width="50" height="50" relative="1" as="geometry">
            <mxPoint x="335" y="840" as="sourcePoint" />
            <mxPoint x="515" y="840" as="targetPoint" />
          </mxGeometry>
        </mxCell>
        <mxCell id="qwatKmPiRgpL-p0G8LSF-31" value="GetAllData()" style="edgeLabel;html=1;align=center;verticalAlign=middle;resizable=0;points=[];" vertex="1" connectable="0" parent="qwatKmPiRgpL-p0G8LSF-30">
          <mxGeometry x="-0.2141" y="-2" relative="1" as="geometry">
            <mxPoint x="23" y="-12" as="offset" />
          </mxGeometry>
        </mxCell>
        <mxCell id="qwatKmPiRgpL-p0G8LSF-32" value="" style="html=1;points=[[0,0,0,0,5],[0,1,0,0,-5],[1,0,0,0,5],[1,1,0,0,-5]];perimeter=orthogonalPerimeter;outlineConnect=0;targetShapes=umlLifeline;portConstraint=eastwest;newEdgeStyle={&quot;curved&quot;:0,&quot;rounded&quot;:0};" vertex="1" parent="1">
          <mxGeometry x="515" y="840" width="10" height="280" as="geometry" />
        </mxCell>
        <mxCell id="qwatKmPiRgpL-p0G8LSF-33" value="" style="edgeStyle=orthogonalEdgeStyle;rounded=0;orthogonalLoop=1;jettySize=auto;html=1;dashed=1;endArrow=none;endFill=0;" edge="1" parent="1" source="qwatKmPiRgpL-p0G8LSF-7" target="qwatKmPiRgpL-p0G8LSF-1">
          <mxGeometry relative="1" as="geometry">
            <mxPoint x="780" y="1140" as="targetPoint" />
            <mxPoint x="780" y="770" as="sourcePoint" />
            <Array as="points">
              <mxPoint x="780" y="880" />
              <mxPoint x="780" y="880" />
            </Array>
          </mxGeometry>
        </mxCell>
        <mxCell id="qwatKmPiRgpL-p0G8LSF-34" value="&lt;span data-teams=&quot;true&quot;&gt;Return vwFacility&lt;/span&gt;" style="edgeLabel;html=1;align=center;verticalAlign=middle;resizable=0;points=[];" vertex="1" connectable="0" parent="1">
          <mxGeometry x="939" y="900" as="geometry" />
        </mxCell>
        <mxCell id="qwatKmPiRgpL-p0G8LSF-35" value="" style="html=1;points=[[0,0,0,0,5],[0,1,0,0,-5],[1,0,0,0,5],[1,1,0,0,-5]];perimeter=orthogonalPerimeter;outlineConnect=0;targetShapes=umlLifeline;portConstraint=eastwest;newEdgeStyle={&quot;curved&quot;:0,&quot;rounded&quot;:0};" vertex="1" parent="1">
          <mxGeometry x="520" y="1080" width="10" height="30" as="geometry" />
        </mxCell>
        <mxCell id="qwatKmPiRgpL-p0G8LSF-36" value="" style="endArrow=classic;html=1;rounded=0;" edge="1" parent="1">
          <mxGeometry width="50" height="50" relative="1" as="geometry">
            <mxPoint x="529" y="1050" as="sourcePoint" />
            <mxPoint x="529" y="1080" as="targetPoint" />
            <Array as="points">
              <mxPoint x="574" y="1050" />
              <mxPoint x="574" y="1080" />
            </Array>
          </mxGeometry>
        </mxCell>
        <mxCell id="qwatKmPiRgpL-p0G8LSF-37" value="AddPermitsToFacility&lt;div&gt;(ObservableCollection&amp;lt;Facility&amp;gt;)&lt;/div&gt;" style="edgeLabel;html=1;align=center;verticalAlign=middle;resizable=0;points=[];" vertex="1" connectable="0" parent="qwatKmPiRgpL-p0G8LSF-36">
          <mxGeometry x="-0.6417" y="-1" relative="1" as="geometry">
            <mxPoint x="110" y="19" as="offset" />
          </mxGeometry>
        </mxCell>
        <mxCell id="qwatKmPiRgpL-p0G8LSF-38" value="" style="endArrow=open;html=1;rounded=0;dashed=1;dashPattern=8 8;endFill=0;" edge="1" parent="1" target="qwatKmPiRgpL-p0G8LSF-11">
          <mxGeometry width="50" height="50" relative="1" as="geometry">
            <mxPoint x="510" y="1120" as="sourcePoint" />
            <mxPoint x="340" y="1120" as="targetPoint" />
          </mxGeometry>
        </mxCell>
        <mxCell id="qwatKmPiRgpL-p0G8LSF-39" value="ObservableCollection&amp;lt;Facility&amp;gt;" style="edgeLabel;html=1;align=center;verticalAlign=middle;resizable=0;points=[];" vertex="1" connectable="0" parent="qwatKmPiRgpL-p0G8LSF-38">
          <mxGeometry x="0.1619" relative="1" as="geometry">
            <mxPoint x="8" y="-10" as="offset" />
          </mxGeometry>
        </mxCell>
      </root>
    </mxGraphModel>
  </diagram>
  <diagram id="_2nrGqbs9a6KQLAFMnZw" name="DCD">
    <mxGraphModel dx="516" dy="223" grid="1" gridSize="10" guides="1" tooltips="1" connect="1" arrows="1" fold="1" page="1" pageScale="1" pageWidth="827" pageHeight="1169" math="0" shadow="0">
      <root>
        <mxCell id="0" />
        <mxCell id="1" parent="0" />
        <mxCell id="bo5SSvQVIFfWiV_Lwgm2-1" value="LoginWindow" style="swimlane;fontStyle=1;align=center;verticalAlign=top;childLayout=stackLayout;horizontal=1;startSize=26;horizontalStack=0;resizeParent=1;resizeParentMax=0;resizeLast=0;collapsible=1;marginBottom=0;whiteSpace=wrap;html=1;" parent="1" vertex="1">
          <mxGeometry x="80" y="40" width="160" height="86" as="geometry" />
        </mxCell>
        <mxCell id="bo5SSvQVIFfWiV_Lwgm2-2" value="+ field: type" style="text;strokeColor=none;fillColor=none;align=left;verticalAlign=top;spacingLeft=4;spacingRight=4;overflow=hidden;rotatable=0;points=[[0,0.5],[1,0.5]];portConstraint=eastwest;whiteSpace=wrap;html=1;" parent="bo5SSvQVIFfWiV_Lwgm2-1" vertex="1">
          <mxGeometry y="26" width="160" height="26" as="geometry" />
        </mxCell>
        <mxCell id="bo5SSvQVIFfWiV_Lwgm2-3" value="" style="line;strokeWidth=1;fillColor=none;align=left;verticalAlign=middle;spacingTop=-1;spacingLeft=3;spacingRight=3;rotatable=0;labelPosition=right;points=[];portConstraint=eastwest;strokeColor=inherit;" parent="bo5SSvQVIFfWiV_Lwgm2-1" vertex="1">
          <mxGeometry y="52" width="160" height="8" as="geometry" />
        </mxCell>
        <mxCell id="bo5SSvQVIFfWiV_Lwgm2-4" value="+ method(type): type" style="text;strokeColor=none;fillColor=none;align=left;verticalAlign=top;spacingLeft=4;spacingRight=4;overflow=hidden;rotatable=0;points=[[0,0.5],[1,0.5]];portConstraint=eastwest;whiteSpace=wrap;html=1;" parent="bo5SSvQVIFfWiV_Lwgm2-1" vertex="1">
          <mxGeometry y="60" width="160" height="26" as="geometry" />
        </mxCell>
        <mxCell id="bo5SSvQVIFfWiV_Lwgm2-5" value="SummaryWindow" style="swimlane;fontStyle=1;align=center;verticalAlign=top;childLayout=stackLayout;horizontal=1;startSize=26;horizontalStack=0;resizeParent=1;resizeParentMax=0;resizeLast=0;collapsible=1;marginBottom=0;whiteSpace=wrap;html=1;" parent="1" vertex="1">
          <mxGeometry x="500" y="40" width="240" height="86" as="geometry" />
        </mxCell>
        <mxCell id="l9xUXGm3okjoMGRfIjiB-3" value="+ svm : SummaryVM" style="text;strokeColor=none;fillColor=none;align=left;verticalAlign=top;spacingLeft=4;spacingRight=4;overflow=hidden;rotatable=0;points=[[0,0.5],[1,0.5]];portConstraint=eastwest;whiteSpace=wrap;html=1;" parent="bo5SSvQVIFfWiV_Lwgm2-5" vertex="1">
          <mxGeometry y="26" width="240" height="26" as="geometry" />
        </mxCell>
        <mxCell id="bo5SSvQVIFfWiV_Lwgm2-7" value="" style="line;strokeWidth=1;fillColor=none;align=left;verticalAlign=middle;spacingTop=-1;spacingLeft=3;spacingRight=3;rotatable=0;labelPosition=right;points=[];portConstraint=eastwest;strokeColor=inherit;" parent="bo5SSvQVIFfWiV_Lwgm2-5" vertex="1">
          <mxGeometry y="52" width="240" height="8" as="geometry" />
        </mxCell>
        <mxCell id="bo5SSvQVIFfWiV_Lwgm2-8" value="&amp;lt;&amp;lt;constructor&amp;gt;&amp;gt; SummaryWindow()" style="text;strokeColor=none;fillColor=none;align=left;verticalAlign=top;spacingLeft=4;spacingRight=4;overflow=hidden;rotatable=0;points=[[0,0.5],[1,0.5]];portConstraint=eastwest;whiteSpace=wrap;html=1;" parent="bo5SSvQVIFfWiV_Lwgm2-5" vertex="1">
          <mxGeometry y="60" width="240" height="26" as="geometry" />
        </mxCell>
        <mxCell id="bo5SSvQVIFfWiV_Lwgm2-9" value="LoginVM" style="swimlane;fontStyle=1;align=center;verticalAlign=top;childLayout=stackLayout;horizontal=1;startSize=26;horizontalStack=0;resizeParent=1;resizeParentMax=0;resizeLast=0;collapsible=1;marginBottom=0;whiteSpace=wrap;html=1;" parent="1" vertex="1">
          <mxGeometry x="80" y="320" width="160" height="86" as="geometry" />
        </mxCell>
        <mxCell id="bo5SSvQVIFfWiV_Lwgm2-10" value="+ field: type" style="text;strokeColor=none;fillColor=none;align=left;verticalAlign=top;spacingLeft=4;spacingRight=4;overflow=hidden;rotatable=0;points=[[0,0.5],[1,0.5]];portConstraint=eastwest;whiteSpace=wrap;html=1;" parent="bo5SSvQVIFfWiV_Lwgm2-9" vertex="1">
          <mxGeometry y="26" width="160" height="26" as="geometry" />
        </mxCell>
        <mxCell id="bo5SSvQVIFfWiV_Lwgm2-11" value="" style="line;strokeWidth=1;fillColor=none;align=left;verticalAlign=middle;spacingTop=-1;spacingLeft=3;spacingRight=3;rotatable=0;labelPosition=right;points=[];portConstraint=eastwest;strokeColor=inherit;" parent="bo5SSvQVIFfWiV_Lwgm2-9" vertex="1">
          <mxGeometry y="52" width="160" height="8" as="geometry" />
        </mxCell>
        <mxCell id="bo5SSvQVIFfWiV_Lwgm2-12" value="+ method(type): type" style="text;strokeColor=none;fillColor=none;align=left;verticalAlign=top;spacingLeft=4;spacingRight=4;overflow=hidden;rotatable=0;points=[[0,0.5],[1,0.5]];portConstraint=eastwest;whiteSpace=wrap;html=1;" parent="bo5SSvQVIFfWiV_Lwgm2-9" vertex="1">
          <mxGeometry y="60" width="160" height="26" as="geometry" />
        </mxCell>
        <mxCell id="bo5SSvQVIFfWiV_Lwgm2-13" value="SummaryVM" style="swimlane;fontStyle=1;align=center;verticalAlign=top;childLayout=stackLayout;horizontal=1;startSize=26;horizontalStack=0;resizeParent=1;resizeParentMax=0;resizeLast=0;collapsible=1;marginBottom=0;whiteSpace=wrap;html=1;" parent="1" vertex="1">
          <mxGeometry x="270" y="320" width="290" height="138" as="geometry" />
        </mxCell>
        <mxCell id="bo5SSvQVIFfWiV_Lwgm2-14" value="+ Facilities : observableCollection&amp;lt;Facility&amp;gt;" style="text;strokeColor=none;fillColor=none;align=left;verticalAlign=top;spacingLeft=4;spacingRight=4;overflow=hidden;rotatable=0;points=[[0,0.5],[1,0.5]];portConstraint=eastwest;whiteSpace=wrap;html=1;" parent="bo5SSvQVIFfWiV_Lwgm2-13" vertex="1">
          <mxGeometry y="26" width="290" height="26" as="geometry" />
        </mxCell>
        <mxCell id="l9xUXGm3okjoMGRfIjiB-2" value="- _facilityService : FalicifyService" style="text;strokeColor=none;fillColor=none;align=left;verticalAlign=top;spacingLeft=4;spacingRight=4;overflow=hidden;rotatable=0;points=[[0,0.5],[1,0.5]];portConstraint=eastwest;whiteSpace=wrap;html=1;" parent="bo5SSvQVIFfWiV_Lwgm2-13" vertex="1">
          <mxGeometry y="52" width="290" height="26" as="geometry" />
        </mxCell>
        <mxCell id="bo5SSvQVIFfWiV_Lwgm2-15" value="" style="line;strokeWidth=1;fillColor=none;align=left;verticalAlign=middle;spacingTop=-1;spacingLeft=3;spacingRight=3;rotatable=0;labelPosition=right;points=[];portConstraint=eastwest;strokeColor=inherit;" parent="bo5SSvQVIFfWiV_Lwgm2-13" vertex="1">
          <mxGeometry y="78" width="290" height="8" as="geometry" />
        </mxCell>
        <mxCell id="bo5SSvQVIFfWiV_Lwgm2-16" value="- ShowFacilities(): observableCollection&amp;lt;Facility&amp;gt;" style="text;strokeColor=none;fillColor=none;align=left;verticalAlign=top;spacingLeft=4;spacingRight=4;overflow=hidden;rotatable=0;points=[[0,0.5],[1,0.5]];portConstraint=eastwest;whiteSpace=wrap;html=1;" parent="bo5SSvQVIFfWiV_Lwgm2-13" vertex="1">
          <mxGeometry y="86" width="290" height="26" as="geometry" />
        </mxCell>
        <mxCell id="l9xUXGm3okjoMGRfIjiB-4" value="&amp;lt;&amp;lt;constructor&amp;gt;&amp;gt;SummaryVM()" style="text;strokeColor=none;fillColor=none;align=left;verticalAlign=top;spacingLeft=4;spacingRight=4;overflow=hidden;rotatable=0;points=[[0,0.5],[1,0.5]];portConstraint=eastwest;whiteSpace=wrap;html=1;" parent="bo5SSvQVIFfWiV_Lwgm2-13" vertex="1">
          <mxGeometry y="112" width="290" height="26" as="geometry" />
        </mxCell>
        <mxCell id="bo5SSvQVIFfWiV_Lwgm2-25" value="LoginRepo" style="swimlane;fontStyle=1;align=center;verticalAlign=top;childLayout=stackLayout;horizontal=1;startSize=26;horizontalStack=0;resizeParent=1;resizeParentMax=0;resizeLast=0;collapsible=1;marginBottom=0;whiteSpace=wrap;html=1;" parent="1" vertex="1">
          <mxGeometry x="30" y="873" width="160" height="86" as="geometry" />
        </mxCell>
        <mxCell id="bo5SSvQVIFfWiV_Lwgm2-26" value="+ field: type" style="text;strokeColor=none;fillColor=none;align=left;verticalAlign=top;spacingLeft=4;spacingRight=4;overflow=hidden;rotatable=0;points=[[0,0.5],[1,0.5]];portConstraint=eastwest;whiteSpace=wrap;html=1;" parent="bo5SSvQVIFfWiV_Lwgm2-25" vertex="1">
          <mxGeometry y="26" width="160" height="26" as="geometry" />
        </mxCell>
        <mxCell id="bo5SSvQVIFfWiV_Lwgm2-27" value="" style="line;strokeWidth=1;fillColor=none;align=left;verticalAlign=middle;spacingTop=-1;spacingLeft=3;spacingRight=3;rotatable=0;labelPosition=right;points=[];portConstraint=eastwest;strokeColor=inherit;" parent="bo5SSvQVIFfWiV_Lwgm2-25" vertex="1">
          <mxGeometry y="52" width="160" height="8" as="geometry" />
        </mxCell>
        <mxCell id="bo5SSvQVIFfWiV_Lwgm2-28" value="+ method(type): type" style="text;strokeColor=none;fillColor=none;align=left;verticalAlign=top;spacingLeft=4;spacingRight=4;overflow=hidden;rotatable=0;points=[[0,0.5],[1,0.5]];portConstraint=eastwest;whiteSpace=wrap;html=1;" parent="bo5SSvQVIFfWiV_Lwgm2-25" vertex="1">
          <mxGeometry y="60" width="160" height="26" as="geometry" />
        </mxCell>
        <mxCell id="bo5SSvQVIFfWiV_Lwgm2-29" value="FacilityRepo&amp;lt;T&amp;gt;" style="swimlane;fontStyle=1;align=center;verticalAlign=top;childLayout=stackLayout;horizontal=1;startSize=26;horizontalStack=0;resizeParent=1;resizeParentMax=0;resizeLast=0;collapsible=1;marginBottom=0;whiteSpace=wrap;html=1;" parent="1" vertex="1">
          <mxGeometry x="247" y="873" width="280" height="264" as="geometry" />
        </mxCell>
        <mxCell id="l9xUXGm3okjoMGRfIjiB-6" value="- connectionString : String" style="text;strokeColor=none;fillColor=none;align=left;verticalAlign=top;spacingLeft=4;spacingRight=4;overflow=hidden;rotatable=0;points=[[0,0.5],[1,0.5]];portConstraint=eastwest;whiteSpace=wrap;html=1;" parent="bo5SSvQVIFfWiV_Lwgm2-29" vertex="1">
          <mxGeometry y="26" width="280" height="26" as="geometry" />
        </mxCell>
        <mxCell id="l9xUXGm3okjoMGRfIjiB-7" value="- getAllQuery : String" style="text;strokeColor=none;fillColor=none;align=left;verticalAlign=top;spacingLeft=4;spacingRight=4;overflow=hidden;rotatable=0;points=[[0,0.5],[1,0.5]];portConstraint=eastwest;whiteSpace=wrap;html=1;" parent="bo5SSvQVIFfWiV_Lwgm2-29" vertex="1">
          <mxGeometry y="52" width="280" height="26" as="geometry" />
        </mxCell>
        <mxCell id="bo5SSvQVIFfWiV_Lwgm2-31" value="" style="line;strokeWidth=1;fillColor=none;align=left;verticalAlign=middle;spacingTop=-1;spacingLeft=3;spacingRight=3;rotatable=0;labelPosition=right;points=[];portConstraint=eastwest;strokeColor=inherit;" parent="bo5SSvQVIFfWiV_Lwgm2-29" vertex="1">
          <mxGeometry y="78" width="280" height="8" as="geometry" />
        </mxCell>
        <mxCell id="bo5SSvQVIFfWiV_Lwgm2-32" value="+ GetAll() : ObservableCollection&amp;lt;T&amp;gt;" style="text;strokeColor=none;fillColor=none;align=left;verticalAlign=top;spacingLeft=4;spacingRight=4;overflow=hidden;rotatable=0;points=[[0,0.5],[1,0.5]];portConstraint=eastwest;whiteSpace=wrap;html=1;" parent="bo5SSvQVIFfWiV_Lwgm2-29" vertex="1">
          <mxGeometry y="86" width="280" height="26" as="geometry" />
        </mxCell>
        <mxCell id="kcjF0Bzhrz3PN26yfvxr-2" value="+ GetStringFromDB() : String" style="text;strokeColor=none;fillColor=none;align=left;verticalAlign=top;spacingLeft=4;spacingRight=4;overflow=hidden;rotatable=0;points=[[0,0.5],[1,0.5]];portConstraint=eastwest;whiteSpace=wrap;html=1;" parent="bo5SSvQVIFfWiV_Lwgm2-29" vertex="1">
          <mxGeometry y="112" width="280" height="26" as="geometry" />
        </mxCell>
        <mxCell id="kcjF0Bzhrz3PN26yfvxr-1" value="+ FromStringToType(reader : SqlDataReader) : T" style="text;strokeColor=none;fillColor=none;align=left;verticalAlign=top;spacingLeft=4;spacingRight=4;overflow=hidden;rotatable=0;points=[[0,0.5],[1,0.5]];portConstraint=eastwest;whiteSpace=wrap;html=1;" parent="bo5SSvQVIFfWiV_Lwgm2-29" vertex="1">
          <mxGeometry y="138" width="280" height="22" as="geometry" />
        </mxCell>
        <mxCell id="kcjF0Bzhrz3PN26yfvxr-13" value="+ GetById(id : Int) : T" style="text;strokeColor=none;fillColor=none;align=left;verticalAlign=top;spacingLeft=4;spacingRight=4;overflow=hidden;rotatable=0;points=[[0,0.5],[1,0.5]];portConstraint=eastwest;whiteSpace=wrap;html=1;" parent="bo5SSvQVIFfWiV_Lwgm2-29" vertex="1">
          <mxGeometry y="160" width="280" height="26" as="geometry" />
        </mxCell>
        <mxCell id="kcjF0Bzhrz3PN26yfvxr-16" value="+ Update(entity : T)" style="text;strokeColor=none;fillColor=none;align=left;verticalAlign=top;spacingLeft=4;spacingRight=4;overflow=hidden;rotatable=0;points=[[0,0.5],[1,0.5]];portConstraint=eastwest;whiteSpace=wrap;html=1;" parent="bo5SSvQVIFfWiV_Lwgm2-29" vertex="1">
          <mxGeometry y="186" width="280" height="26" as="geometry" />
        </mxCell>
        <mxCell id="kcjF0Bzhrz3PN26yfvxr-15" value="+ Remove(entity : T)" style="text;strokeColor=none;fillColor=none;align=left;verticalAlign=top;spacingLeft=4;spacingRight=4;overflow=hidden;rotatable=0;points=[[0,0.5],[1,0.5]];portConstraint=eastwest;whiteSpace=wrap;html=1;" parent="bo5SSvQVIFfWiV_Lwgm2-29" vertex="1">
          <mxGeometry y="212" width="280" height="26" as="geometry" />
        </mxCell>
        <mxCell id="kcjF0Bzhrz3PN26yfvxr-14" value="+ Add(entity : T)" style="text;strokeColor=none;fillColor=none;align=left;verticalAlign=top;spacingLeft=4;spacingRight=4;overflow=hidden;rotatable=0;points=[[0,0.5],[1,0.5]];portConstraint=eastwest;whiteSpace=wrap;html=1;" parent="bo5SSvQVIFfWiV_Lwgm2-29" vertex="1">
          <mxGeometry y="238" width="280" height="26" as="geometry" />
        </mxCell>
        <mxCell id="bo5SSvQVIFfWiV_Lwgm2-46" value="" style="swimlane;fontStyle=1;align=center;verticalAlign=top;childLayout=stackLayout;horizontal=1;startSize=26;horizontalStack=0;resizeParent=1;resizeParentMax=0;resizeLast=0;collapsible=1;marginBottom=0;whiteSpace=wrap;html=1;" parent="1" vertex="1">
          <mxGeometry x="1040" y="40" width="160" height="86" as="geometry" />
        </mxCell>
        <mxCell id="bo5SSvQVIFfWiV_Lwgm2-47" value="+ field: type" style="text;strokeColor=none;fillColor=none;align=left;verticalAlign=top;spacingLeft=4;spacingRight=4;overflow=hidden;rotatable=0;points=[[0,0.5],[1,0.5]];portConstraint=eastwest;whiteSpace=wrap;html=1;" parent="bo5SSvQVIFfWiV_Lwgm2-46" vertex="1">
          <mxGeometry y="26" width="160" height="26" as="geometry" />
        </mxCell>
        <mxCell id="bo5SSvQVIFfWiV_Lwgm2-48" value="" style="line;strokeWidth=1;fillColor=none;align=left;verticalAlign=middle;spacingTop=-1;spacingLeft=3;spacingRight=3;rotatable=0;labelPosition=right;points=[];portConstraint=eastwest;strokeColor=inherit;" parent="bo5SSvQVIFfWiV_Lwgm2-46" vertex="1">
          <mxGeometry y="52" width="160" height="8" as="geometry" />
        </mxCell>
        <mxCell id="bo5SSvQVIFfWiV_Lwgm2-49" value="+ method(type): type" style="text;strokeColor=none;fillColor=none;align=left;verticalAlign=top;spacingLeft=4;spacingRight=4;overflow=hidden;rotatable=0;points=[[0,0.5],[1,0.5]];portConstraint=eastwest;whiteSpace=wrap;html=1;" parent="bo5SSvQVIFfWiV_Lwgm2-46" vertex="1">
          <mxGeometry y="60" width="160" height="26" as="geometry" />
        </mxCell>
        <mxCell id="bo5SSvQVIFfWiV_Lwgm2-50" value="" style="swimlane;fontStyle=1;align=center;verticalAlign=top;childLayout=stackLayout;horizontal=1;startSize=26;horizontalStack=0;resizeParent=1;resizeParentMax=0;resizeLast=0;collapsible=1;marginBottom=0;whiteSpace=wrap;html=1;" parent="1" vertex="1">
          <mxGeometry x="827" y="320" width="160" height="86" as="geometry" />
        </mxCell>
        <mxCell id="bo5SSvQVIFfWiV_Lwgm2-51" value="+ field: type" style="text;strokeColor=none;fillColor=none;align=left;verticalAlign=top;spacingLeft=4;spacingRight=4;overflow=hidden;rotatable=0;points=[[0,0.5],[1,0.5]];portConstraint=eastwest;whiteSpace=wrap;html=1;" parent="bo5SSvQVIFfWiV_Lwgm2-50" vertex="1">
          <mxGeometry y="26" width="160" height="26" as="geometry" />
        </mxCell>
        <mxCell id="bo5SSvQVIFfWiV_Lwgm2-52" value="" style="line;strokeWidth=1;fillColor=none;align=left;verticalAlign=middle;spacingTop=-1;spacingLeft=3;spacingRight=3;rotatable=0;labelPosition=right;points=[];portConstraint=eastwest;strokeColor=inherit;" parent="bo5SSvQVIFfWiV_Lwgm2-50" vertex="1">
          <mxGeometry y="52" width="160" height="8" as="geometry" />
        </mxCell>
        <mxCell id="bo5SSvQVIFfWiV_Lwgm2-53" value="+ method(type): type" style="text;strokeColor=none;fillColor=none;align=left;verticalAlign=top;spacingLeft=4;spacingRight=4;overflow=hidden;rotatable=0;points=[[0,0.5],[1,0.5]];portConstraint=eastwest;whiteSpace=wrap;html=1;" parent="bo5SSvQVIFfWiV_Lwgm2-50" vertex="1">
          <mxGeometry y="60" width="160" height="26" as="geometry" />
        </mxCell>
        <mxCell id="bo5SSvQVIFfWiV_Lwgm2-54" value="Facility" style="swimlane;fontStyle=1;align=center;verticalAlign=top;childLayout=stackLayout;horizontal=1;startSize=26;horizontalStack=0;resizeParent=1;resizeParentMax=0;resizeLast=0;collapsible=1;marginBottom=0;whiteSpace=wrap;html=1;" parent="1" vertex="1">
          <mxGeometry x="252" y="1220" width="270" height="296" as="geometry" />
        </mxCell>
        <mxCell id="1P-GVoEKbpmLQCLgcFKr-2" value="+ FacilityID: Int" style="text;strokeColor=none;fillColor=none;align=left;verticalAlign=top;spacingLeft=4;spacingRight=4;overflow=hidden;rotatable=0;points=[[0,0.5],[1,0.5]];portConstraint=eastwest;whiteSpace=wrap;html=1;" parent="bo5SSvQVIFfWiV_Lwgm2-54" vertex="1">
          <mxGeometry y="26" width="270" height="26" as="geometry" />
        </mxCell>
        <mxCell id="bo5SSvQVIFfWiV_Lwgm2-55" value="+ Name: String" style="text;strokeColor=none;fillColor=none;align=left;verticalAlign=top;spacingLeft=4;spacingRight=4;overflow=hidden;rotatable=0;points=[[0,0.5],[1,0.5]];portConstraint=eastwest;whiteSpace=wrap;html=1;" parent="bo5SSvQVIFfWiV_Lwgm2-54" vertex="1">
          <mxGeometry y="52" width="270" height="26" as="geometry" />
        </mxCell>
        <mxCell id="kcjF0Bzhrz3PN26yfvxr-39" value="+ NumberOfIncidents: Int" style="text;strokeColor=none;fillColor=none;align=left;verticalAlign=top;spacingLeft=4;spacingRight=4;overflow=hidden;rotatable=0;points=[[0,0.5],[1,0.5]];portConstraint=eastwest;whiteSpace=wrap;html=1;" parent="bo5SSvQVIFfWiV_Lwgm2-54" vertex="1">
          <mxGeometry y="78" width="270" height="26" as="geometry" />
        </mxCell>
        <mxCell id="kcjF0Bzhrz3PN26yfvxr-40" value="+ TotalOverflow: Int" style="text;strokeColor=none;fillColor=none;align=left;verticalAlign=top;spacingLeft=4;spacingRight=4;overflow=hidden;rotatable=0;points=[[0,0.5],[1,0.5]];portConstraint=eastwest;whiteSpace=wrap;html=1;" parent="bo5SSvQVIFfWiV_Lwgm2-54" vertex="1">
          <mxGeometry y="104" width="270" height="26" as="geometry" />
        </mxCell>
        <mxCell id="bo5SSvQVIFfWiV_Lwgm2-57" value="+ Permits: OservableCollection&amp;lt;Permit&amp;gt;" style="text;strokeColor=none;fillColor=none;align=left;verticalAlign=top;spacingLeft=4;spacingRight=4;overflow=hidden;rotatable=0;points=[[0,0.5],[1,0.5]];portConstraint=eastwest;whiteSpace=wrap;html=1;" parent="bo5SSvQVIFfWiV_Lwgm2-54" vertex="1">
          <mxGeometry y="130" width="270" height="26" as="geometry" />
        </mxCell>
        <mxCell id="kcjF0Bzhrz3PN26yfvxr-45" value="+ UDLNumber: String" style="text;strokeColor=none;fillColor=none;align=left;verticalAlign=top;spacingLeft=4;spacingRight=4;overflow=hidden;rotatable=0;points=[[0,0.5],[1,0.5]];portConstraint=eastwest;whiteSpace=wrap;html=1;" parent="bo5SSvQVIFfWiV_Lwgm2-54" vertex="1">
          <mxGeometry y="156" width="270" height="26" as="geometry" />
        </mxCell>
        <mxCell id="kcjF0Bzhrz3PN26yfvxr-76" value="+ OBNumber: String" style="text;strokeColor=none;fillColor=none;align=left;verticalAlign=top;spacingLeft=4;spacingRight=4;overflow=hidden;rotatable=0;points=[[0,0.5],[1,0.5]];portConstraint=eastwest;whiteSpace=wrap;html=1;" parent="bo5SSvQVIFfWiV_Lwgm2-54" vertex="1">
          <mxGeometry y="182" width="270" height="26" as="geometry" />
        </mxCell>
        <mxCell id="kcjF0Bzhrz3PN26yfvxr-78" value="+ System: String" style="text;strokeColor=none;fillColor=none;align=left;verticalAlign=top;spacingLeft=4;spacingRight=4;overflow=hidden;rotatable=0;points=[[0,0.5],[1,0.5]];portConstraint=eastwest;whiteSpace=wrap;html=1;" parent="bo5SSvQVIFfWiV_Lwgm2-54" vertex="1">
          <mxGeometry y="208" width="270" height="28" as="geometry" />
        </mxCell>
        <mxCell id="kcjF0Bzhrz3PN26yfvxr-81" value="+ MinimumPoolSize: String" style="text;strokeColor=none;fillColor=none;align=left;verticalAlign=top;spacingLeft=4;spacingRight=4;overflow=hidden;rotatable=0;points=[[0,0.5],[1,0.5]];portConstraint=eastwest;whiteSpace=wrap;html=1;" parent="bo5SSvQVIFfWiV_Lwgm2-54" vertex="1">
          <mxGeometry y="236" width="270" height="26" as="geometry" />
        </mxCell>
        <mxCell id="bo5SSvQVIFfWiV_Lwgm2-56" value="" style="line;strokeWidth=1;fillColor=none;align=left;verticalAlign=middle;spacingTop=-1;spacingLeft=3;spacingRight=3;rotatable=0;labelPosition=right;points=[];portConstraint=eastwest;strokeColor=inherit;" parent="bo5SSvQVIFfWiV_Lwgm2-54" vertex="1">
          <mxGeometry y="262" width="270" height="8" as="geometry" />
        </mxCell>
        <mxCell id="l9xUXGm3okjoMGRfIjiB-42" value="&amp;lt;&amp;lt;constructor&amp;gt;&amp;gt;Facility()" style="text;strokeColor=none;fillColor=none;align=left;verticalAlign=top;spacingLeft=4;spacingRight=4;overflow=hidden;rotatable=0;points=[[0,0.5],[1,0.5]];portConstraint=eastwest;whiteSpace=wrap;html=1;" parent="bo5SSvQVIFfWiV_Lwgm2-54" vertex="1">
          <mxGeometry y="270" width="270" height="26" as="geometry" />
        </mxCell>
        <mxCell id="bo5SSvQVIFfWiV_Lwgm2-63" value="View" style="shape=umlFrame;whiteSpace=wrap;html=1;pointerEvents=0;width=80;height=30;" parent="1" vertex="1">
          <mxGeometry width="1640" height="280" as="geometry" />
        </mxCell>
        <mxCell id="bo5SSvQVIFfWiV_Lwgm2-64" value="ViewModel" style="shape=umlFrame;whiteSpace=wrap;html=1;pointerEvents=0;width=80;height=30;" parent="1" vertex="1">
          <mxGeometry y="280" width="1640" height="220" as="geometry" />
        </mxCell>
        <mxCell id="bo5SSvQVIFfWiV_Lwgm2-65" value="Model" style="shape=umlFrame;whiteSpace=wrap;html=1;pointerEvents=0;width=80;height=30;" parent="1" vertex="1">
          <mxGeometry y="500" width="1640" height="1110" as="geometry" />
        </mxCell>
        <mxCell id="IFbbEQ-6FJ6GLovj2k8C-1" value="Permit" style="swimlane;fontStyle=1;align=center;verticalAlign=top;childLayout=stackLayout;horizontal=1;startSize=26;horizontalStack=0;resizeParent=1;resizeParentMax=0;resizeLast=0;collapsible=1;marginBottom=0;whiteSpace=wrap;html=1;" parent="1" vertex="1">
          <mxGeometry x="960" y="1200" width="273" height="398" as="geometry" />
        </mxCell>
        <mxCell id="1P-GVoEKbpmLQCLgcFKr-1" value="+ PermitID: Int&lt;span style=&quot;white-space: pre;&quot;&gt;&#x9;&lt;/span&gt;" style="text;strokeColor=none;fillColor=none;align=left;verticalAlign=top;spacingLeft=4;spacingRight=4;overflow=hidden;rotatable=0;points=[[0,0.5],[1,0.5]];portConstraint=eastwest;whiteSpace=wrap;html=1;" parent="IFbbEQ-6FJ6GLovj2k8C-1" vertex="1">
          <mxGeometry y="26" width="273" height="26" as="geometry" />
        </mxCell>
        <mxCell id="kcjF0Bzhrz3PN26yfvxr-52" value="+ endDate: DateTime&lt;span style=&quot;white-space: pre;&quot;&gt;&#x9;&lt;/span&gt;" style="text;strokeColor=none;fillColor=none;align=left;verticalAlign=top;spacingLeft=4;spacingRight=4;overflow=hidden;rotatable=0;points=[[0,0.5],[1,0.5]];portConstraint=eastwest;whiteSpace=wrap;html=1;" parent="IFbbEQ-6FJ6GLovj2k8C-1" vertex="1">
          <mxGeometry y="52" width="273" height="26" as="geometry" />
        </mxCell>
        <mxCell id="kcjF0Bzhrz3PN26yfvxr-51" value="+ startDate: DateTime" style="text;strokeColor=none;fillColor=none;align=left;verticalAlign=top;spacingLeft=4;spacingRight=4;overflow=hidden;rotatable=0;points=[[0,0.5],[1,0.5]];portConstraint=eastwest;whiteSpace=wrap;html=1;" parent="IFbbEQ-6FJ6GLovj2k8C-1" vertex="1">
          <mxGeometry y="78" width="273" height="26" as="geometry" />
        </mxCell>
        <mxCell id="OouDe86RF0yDCA9ED-5M-1" value="+ AllowedAverageOverflowVolume: Int" style="text;strokeColor=none;fillColor=none;align=left;verticalAlign=top;spacingLeft=4;spacingRight=4;overflow=hidden;rotatable=0;points=[[0,0.5],[1,0.5]];portConstraint=eastwest;whiteSpace=wrap;html=1;" parent="IFbbEQ-6FJ6GLovj2k8C-1" vertex="1">
          <mxGeometry y="104" width="273" height="26" as="geometry" />
        </mxCell>
        <mxCell id="OouDe86RF0yDCA9ED-5M-6" value="+ AllowedYearlyIncidents: Int" style="text;strokeColor=none;fillColor=none;align=left;verticalAlign=top;spacingLeft=4;spacingRight=4;overflow=hidden;rotatable=0;points=[[0,0.5],[1,0.5]];portConstraint=eastwest;whiteSpace=wrap;html=1;" parent="IFbbEQ-6FJ6GLovj2k8C-1" vertex="1">
          <mxGeometry y="130" width="273" height="26" as="geometry" />
        </mxCell>
        <mxCell id="OouDe86RF0yDCA9ED-5M-5" value="+ AllowedAverageIncidentsPeriod: DateOnly" style="text;strokeColor=none;fillColor=none;align=left;verticalAlign=top;spacingLeft=4;spacingRight=4;overflow=hidden;rotatable=0;points=[[0,0.5],[1,0.5]];portConstraint=eastwest;whiteSpace=wrap;html=1;" parent="IFbbEQ-6FJ6GLovj2k8C-1" vertex="1">
          <mxGeometry y="156" width="273" height="26" as="geometry" />
        </mxCell>
        <mxCell id="OouDe86RF0yDCA9ED-5M-4" value="+ AllowedAverageIncidents: Int" style="text;strokeColor=none;fillColor=none;align=left;verticalAlign=top;spacingLeft=4;spacingRight=4;overflow=hidden;rotatable=0;points=[[0,0.5],[1,0.5]];portConstraint=eastwest;whiteSpace=wrap;html=1;" parent="IFbbEQ-6FJ6GLovj2k8C-1" vertex="1">
          <mxGeometry y="182" width="273" height="26" as="geometry" />
        </mxCell>
        <mxCell id="OouDe86RF0yDCA9ED-5M-3" value="+ AllowedYearlyOverflowVolume: Int" style="text;strokeColor=none;fillColor=none;align=left;verticalAlign=top;spacingLeft=4;spacingRight=4;overflow=hidden;rotatable=0;points=[[0,0.5],[1,0.5]];portConstraint=eastwest;whiteSpace=wrap;html=1;" parent="IFbbEQ-6FJ6GLovj2k8C-1" vertex="1">
          <mxGeometry y="208" width="273" height="26" as="geometry" />
        </mxCell>
        <mxCell id="OouDe86RF0yDCA9ED-5M-2" value="+ AllowedAverageOverflowPeriod: DateOnly" style="text;strokeColor=none;fillColor=none;align=left;verticalAlign=top;spacingLeft=4;spacingRight=4;overflow=hidden;rotatable=0;points=[[0,0.5],[1,0.5]];portConstraint=eastwest;whiteSpace=wrap;html=1;" parent="IFbbEQ-6FJ6GLovj2k8C-1" vertex="1">
          <mxGeometry y="234" width="273" height="26" as="geometry" />
        </mxCell>
        <mxCell id="kcjF0Bzhrz3PN26yfvxr-53" value="+ EquipmentRestriction: String" style="text;strokeColor=none;fillColor=none;align=left;verticalAlign=top;spacingLeft=4;spacingRight=4;overflow=hidden;rotatable=0;points=[[0,0.5],[1,0.5]];portConstraint=eastwest;whiteSpace=wrap;html=1;" parent="IFbbEQ-6FJ6GLovj2k8C-1" vertex="1">
          <mxGeometry y="260" width="273" height="26" as="geometry" />
        </mxCell>
        <mxCell id="kcjF0Bzhrz3PN26yfvxr-56" value="+ AdditionalRestriction: String" style="text;strokeColor=none;fillColor=none;align=left;verticalAlign=top;spacingLeft=4;spacingRight=4;overflow=hidden;rotatable=0;points=[[0,0.5],[1,0.5]];portConstraint=eastwest;whiteSpace=wrap;html=1;" parent="IFbbEQ-6FJ6GLovj2k8C-1" vertex="1">
          <mxGeometry y="286" width="273" height="26" as="geometry" />
        </mxCell>
        <mxCell id="kcjF0Bzhrz3PN26yfvxr-55" value="+ MaintenanceRestriction: String" style="text;strokeColor=none;fillColor=none;align=left;verticalAlign=top;spacingLeft=4;spacingRight=4;overflow=hidden;rotatable=0;points=[[0,0.5],[1,0.5]];portConstraint=eastwest;whiteSpace=wrap;html=1;" parent="IFbbEQ-6FJ6GLovj2k8C-1" vertex="1">
          <mxGeometry y="312" width="273" height="26" as="geometry" />
        </mxCell>
        <mxCell id="kcjF0Bzhrz3PN26yfvxr-57" value="+ MeasurementRestriction: String" style="text;strokeColor=none;fillColor=none;align=left;verticalAlign=top;spacingLeft=4;spacingRight=4;overflow=hidden;rotatable=0;points=[[0,0.5],[1,0.5]];portConstraint=eastwest;whiteSpace=wrap;html=1;" parent="IFbbEQ-6FJ6GLovj2k8C-1" vertex="1">
          <mxGeometry y="338" width="273" height="26" as="geometry" />
        </mxCell>
        <mxCell id="l9xUXGm3okjoMGRfIjiB-43" value="+ FacilityID : Int" style="text;strokeColor=none;fillColor=none;align=left;verticalAlign=top;spacingLeft=4;spacingRight=4;overflow=hidden;rotatable=0;points=[[0,0.5],[1,0.5]];portConstraint=eastwest;whiteSpace=wrap;html=1;" parent="IFbbEQ-6FJ6GLovj2k8C-1" vertex="1">
          <mxGeometry y="364" width="273" height="26" as="geometry" />
        </mxCell>
        <mxCell id="IFbbEQ-6FJ6GLovj2k8C-3" value="" style="line;strokeWidth=1;fillColor=none;align=left;verticalAlign=middle;spacingTop=-1;spacingLeft=3;spacingRight=3;rotatable=0;labelPosition=right;points=[];portConstraint=eastwest;strokeColor=inherit;" parent="IFbbEQ-6FJ6GLovj2k8C-1" vertex="1">
          <mxGeometry y="390" width="273" height="8" as="geometry" />
        </mxCell>
        <mxCell id="IFbbEQ-6FJ6GLovj2k8C-5" value="Overflow" style="swimlane;fontStyle=1;align=center;verticalAlign=top;childLayout=stackLayout;horizontal=1;startSize=26;horizontalStack=0;resizeParent=1;resizeParentMax=0;resizeLast=0;collapsible=1;marginBottom=0;whiteSpace=wrap;html=1;" parent="1" vertex="1">
          <mxGeometry x="590" y="1246" width="303" height="190" as="geometry" />
        </mxCell>
        <mxCell id="1P-GVoEKbpmLQCLgcFKr-3" value="+ OverflowID: Int" style="text;strokeColor=none;fillColor=none;align=left;verticalAlign=top;spacingLeft=4;spacingRight=4;overflow=hidden;rotatable=0;points=[[0,0.5],[1,0.5]];portConstraint=eastwest;whiteSpace=wrap;html=1;" parent="IFbbEQ-6FJ6GLovj2k8C-5" vertex="1">
          <mxGeometry y="26" width="303" height="26" as="geometry" />
        </mxCell>
        <mxCell id="IFbbEQ-6FJ6GLovj2k8C-6" value="+ StartTime: DateTime" style="text;strokeColor=none;fillColor=none;align=left;verticalAlign=top;spacingLeft=4;spacingRight=4;overflow=hidden;rotatable=0;points=[[0,0.5],[1,0.5]];portConstraint=eastwest;whiteSpace=wrap;html=1;" parent="IFbbEQ-6FJ6GLovj2k8C-5" vertex="1">
          <mxGeometry y="52" width="303" height="26" as="geometry" />
        </mxCell>
        <mxCell id="OouDe86RF0yDCA9ED-5M-7" value="+ EndTime: DateTime" style="text;strokeColor=none;fillColor=none;align=left;verticalAlign=top;spacingLeft=4;spacingRight=4;overflow=hidden;rotatable=0;points=[[0,0.5],[1,0.5]];portConstraint=eastwest;whiteSpace=wrap;html=1;" parent="IFbbEQ-6FJ6GLovj2k8C-5" vertex="1">
          <mxGeometry y="78" width="303" height="26" as="geometry" />
        </mxCell>
        <mxCell id="kcjF0Bzhrz3PN26yfvxr-82" value="+ OverflowVolume: Int" style="text;strokeColor=none;fillColor=none;align=left;verticalAlign=top;spacingLeft=4;spacingRight=4;overflow=hidden;rotatable=0;points=[[0,0.5],[1,0.5]];portConstraint=eastwest;whiteSpace=wrap;html=1;" parent="IFbbEQ-6FJ6GLovj2k8C-5" vertex="1">
          <mxGeometry y="104" width="303" height="26" as="geometry" />
        </mxCell>
        <mxCell id="kcjF0Bzhrz3PN26yfvxr-83" value="+ Duration: TimeSpan" style="text;strokeColor=none;fillColor=none;align=left;verticalAlign=top;spacingLeft=4;spacingRight=4;overflow=hidden;rotatable=0;points=[[0,0.5],[1,0.5]];portConstraint=eastwest;whiteSpace=wrap;html=1;" parent="IFbbEQ-6FJ6GLovj2k8C-5" vertex="1">
          <mxGeometry y="130" width="303" height="26" as="geometry" />
        </mxCell>
        <mxCell id="IFbbEQ-6FJ6GLovj2k8C-7" value="" style="line;strokeWidth=1;fillColor=none;align=left;verticalAlign=middle;spacingTop=-1;spacingLeft=3;spacingRight=3;rotatable=0;labelPosition=right;points=[];portConstraint=eastwest;strokeColor=inherit;" parent="IFbbEQ-6FJ6GLovj2k8C-5" vertex="1">
          <mxGeometry y="156" width="303" height="8" as="geometry" />
        </mxCell>
        <mxCell id="IFbbEQ-6FJ6GLovj2k8C-8" value="+ method(type): type" style="text;strokeColor=none;fillColor=none;align=left;verticalAlign=top;spacingLeft=4;spacingRight=4;overflow=hidden;rotatable=0;points=[[0,0.5],[1,0.5]];portConstraint=eastwest;whiteSpace=wrap;html=1;" parent="IFbbEQ-6FJ6GLovj2k8C-5" vertex="1">
          <mxGeometry y="164" width="303" height="26" as="geometry" />
        </mxCell>
        <mxCell id="IFbbEQ-6FJ6GLovj2k8C-9" value="Incident" style="swimlane;fontStyle=1;align=center;verticalAlign=top;childLayout=stackLayout;horizontal=1;startSize=26;horizontalStack=0;resizeParent=1;resizeParentMax=0;resizeLast=0;collapsible=1;marginBottom=0;whiteSpace=wrap;html=1;" parent="1" vertex="1">
          <mxGeometry x="1330" y="1230" width="160" height="138" as="geometry" />
        </mxCell>
        <mxCell id="1P-GVoEKbpmLQCLgcFKr-4" value="+ IncidentID: Int" style="text;strokeColor=none;fillColor=none;align=left;verticalAlign=top;spacingLeft=4;spacingRight=4;overflow=hidden;rotatable=0;points=[[0,0.5],[1,0.5]];portConstraint=eastwest;whiteSpace=wrap;html=1;" parent="IFbbEQ-6FJ6GLovj2k8C-9" vertex="1">
          <mxGeometry y="26" width="160" height="26" as="geometry" />
        </mxCell>
        <mxCell id="IFbbEQ-6FJ6GLovj2k8C-10" value="+ StartTime: DateTime" style="text;strokeColor=none;fillColor=none;align=left;verticalAlign=top;spacingLeft=4;spacingRight=4;overflow=hidden;rotatable=0;points=[[0,0.5],[1,0.5]];portConstraint=eastwest;whiteSpace=wrap;html=1;" parent="IFbbEQ-6FJ6GLovj2k8C-9" vertex="1">
          <mxGeometry y="52" width="160" height="26" as="geometry" />
        </mxCell>
        <mxCell id="kcjF0Bzhrz3PN26yfvxr-84" value="+ OverflowVolume: Int" style="text;strokeColor=none;fillColor=none;align=left;verticalAlign=top;spacingLeft=4;spacingRight=4;overflow=hidden;rotatable=0;points=[[0,0.5],[1,0.5]];portConstraint=eastwest;whiteSpace=wrap;html=1;" parent="IFbbEQ-6FJ6GLovj2k8C-9" vertex="1">
          <mxGeometry y="78" width="160" height="26" as="geometry" />
        </mxCell>
        <mxCell id="kcjF0Bzhrz3PN26yfvxr-85" value="+ EndTime: DateTime" style="text;strokeColor=none;fillColor=none;align=left;verticalAlign=top;spacingLeft=4;spacingRight=4;overflow=hidden;rotatable=0;points=[[0,0.5],[1,0.5]];portConstraint=eastwest;whiteSpace=wrap;html=1;" parent="IFbbEQ-6FJ6GLovj2k8C-9" vertex="1">
          <mxGeometry y="104" width="160" height="26" as="geometry" />
        </mxCell>
        <mxCell id="IFbbEQ-6FJ6GLovj2k8C-11" value="" style="line;strokeWidth=1;fillColor=none;align=left;verticalAlign=middle;spacingTop=-1;spacingLeft=3;spacingRight=3;rotatable=0;labelPosition=right;points=[];portConstraint=eastwest;strokeColor=inherit;" parent="IFbbEQ-6FJ6GLovj2k8C-9" vertex="1">
          <mxGeometry y="130" width="160" height="8" as="geometry" />
        </mxCell>
        <mxCell id="IFbbEQ-6FJ6GLovj2k8C-13" value="IRepository&amp;lt;T&amp;gt;" style="swimlane;fontStyle=1;align=center;verticalAlign=top;childLayout=stackLayout;horizontal=1;startSize=26;horizontalStack=0;resizeParent=1;resizeParentMax=0;resizeLast=0;collapsible=1;marginBottom=0;whiteSpace=wrap;html=1;" parent="1" vertex="1">
          <mxGeometry x="1050" y="530" width="300" height="216" as="geometry" />
        </mxCell>
        <mxCell id="IFbbEQ-6FJ6GLovj2k8C-15" value="" style="line;strokeWidth=1;fillColor=none;align=left;verticalAlign=middle;spacingTop=-1;spacingLeft=3;spacingRight=3;rotatable=0;labelPosition=right;points=[];portConstraint=eastwest;strokeColor=inherit;" parent="IFbbEQ-6FJ6GLovj2k8C-13" vertex="1">
          <mxGeometry y="26" width="300" height="8" as="geometry" />
        </mxCell>
        <mxCell id="IFbbEQ-6FJ6GLovj2k8C-16" value="+ GetAll(): ObservableCollection&amp;lt;T&amp;gt;" style="text;strokeColor=none;fillColor=none;align=left;verticalAlign=top;spacingLeft=4;spacingRight=4;overflow=hidden;rotatable=0;points=[[0,0.5],[1,0.5]];portConstraint=eastwest;whiteSpace=wrap;html=1;" parent="IFbbEQ-6FJ6GLovj2k8C-13" vertex="1">
          <mxGeometry y="34" width="300" height="26" as="geometry" />
        </mxCell>
        <mxCell id="kcjF0Bzhrz3PN26yfvxr-6" value="- GetStringFromDB() : String" style="text;strokeColor=none;fillColor=none;align=left;verticalAlign=top;spacingLeft=4;spacingRight=4;overflow=hidden;rotatable=0;points=[[0,0.5],[1,0.5]];portConstraint=eastwest;whiteSpace=wrap;html=1;" parent="IFbbEQ-6FJ6GLovj2k8C-13" vertex="1">
          <mxGeometry y="60" width="300" height="26" as="geometry" />
        </mxCell>
        <mxCell id="kcjF0Bzhrz3PN26yfvxr-5" value="- FromStringToType(reader : SqlDataReader) : T" style="text;strokeColor=none;fillColor=none;align=left;verticalAlign=top;spacingLeft=4;spacingRight=4;overflow=hidden;rotatable=0;points=[[0,0.5],[1,0.5]];portConstraint=eastwest;whiteSpace=wrap;html=1;" parent="IFbbEQ-6FJ6GLovj2k8C-13" vertex="1">
          <mxGeometry y="86" width="300" height="26" as="geometry" />
        </mxCell>
        <mxCell id="kcjF0Bzhrz3PN26yfvxr-7" value="+ GetById(id : Int) : T" style="text;strokeColor=none;fillColor=none;align=left;verticalAlign=top;spacingLeft=4;spacingRight=4;overflow=hidden;rotatable=0;points=[[0,0.5],[1,0.5]];portConstraint=eastwest;whiteSpace=wrap;html=1;" parent="IFbbEQ-6FJ6GLovj2k8C-13" vertex="1">
          <mxGeometry y="112" width="300" height="26" as="geometry" />
        </mxCell>
        <mxCell id="kcjF0Bzhrz3PN26yfvxr-11" value="+ Add(entity : T)" style="text;strokeColor=none;fillColor=none;align=left;verticalAlign=top;spacingLeft=4;spacingRight=4;overflow=hidden;rotatable=0;points=[[0,0.5],[1,0.5]];portConstraint=eastwest;whiteSpace=wrap;html=1;" parent="IFbbEQ-6FJ6GLovj2k8C-13" vertex="1">
          <mxGeometry y="138" width="300" height="26" as="geometry" />
        </mxCell>
        <mxCell id="kcjF0Bzhrz3PN26yfvxr-12" value="+ Remove(entity&amp;nbsp;: T)" style="text;strokeColor=none;fillColor=none;align=left;verticalAlign=top;spacingLeft=4;spacingRight=4;overflow=hidden;rotatable=0;points=[[0,0.5],[1,0.5]];portConstraint=eastwest;whiteSpace=wrap;html=1;" parent="IFbbEQ-6FJ6GLovj2k8C-13" vertex="1">
          <mxGeometry y="164" width="300" height="26" as="geometry" />
        </mxCell>
        <mxCell id="kcjF0Bzhrz3PN26yfvxr-10" value="+ Update(entity&amp;nbsp;: T)" style="text;strokeColor=none;fillColor=none;align=left;verticalAlign=top;spacingLeft=4;spacingRight=4;overflow=hidden;rotatable=0;points=[[0,0.5],[1,0.5]];portConstraint=eastwest;whiteSpace=wrap;html=1;" parent="IFbbEQ-6FJ6GLovj2k8C-13" vertex="1">
          <mxGeometry y="190" width="300" height="26" as="geometry" />
        </mxCell>
        <mxCell id="IFbbEQ-6FJ6GLovj2k8C-18" value="" style="swimlane;fontStyle=1;align=center;verticalAlign=top;childLayout=stackLayout;horizontal=1;startSize=26;horizontalStack=0;resizeParent=1;resizeParentMax=0;resizeLast=0;collapsible=1;marginBottom=0;whiteSpace=wrap;html=1;" parent="1" vertex="1">
          <mxGeometry x="590" y="320" width="160" height="86" as="geometry" />
        </mxCell>
        <mxCell id="IFbbEQ-6FJ6GLovj2k8C-19" value="+ field: type" style="text;strokeColor=none;fillColor=none;align=left;verticalAlign=top;spacingLeft=4;spacingRight=4;overflow=hidden;rotatable=0;points=[[0,0.5],[1,0.5]];portConstraint=eastwest;whiteSpace=wrap;html=1;" parent="IFbbEQ-6FJ6GLovj2k8C-18" vertex="1">
          <mxGeometry y="26" width="160" height="26" as="geometry" />
        </mxCell>
        <mxCell id="IFbbEQ-6FJ6GLovj2k8C-20" value="" style="line;strokeWidth=1;fillColor=none;align=left;verticalAlign=middle;spacingTop=-1;spacingLeft=3;spacingRight=3;rotatable=0;labelPosition=right;points=[];portConstraint=eastwest;strokeColor=inherit;" parent="IFbbEQ-6FJ6GLovj2k8C-18" vertex="1">
          <mxGeometry y="52" width="160" height="8" as="geometry" />
        </mxCell>
        <mxCell id="IFbbEQ-6FJ6GLovj2k8C-21" value="+ method(type): type" style="text;strokeColor=none;fillColor=none;align=left;verticalAlign=top;spacingLeft=4;spacingRight=4;overflow=hidden;rotatable=0;points=[[0,0.5],[1,0.5]];portConstraint=eastwest;whiteSpace=wrap;html=1;" parent="IFbbEQ-6FJ6GLovj2k8C-18" vertex="1">
          <mxGeometry y="60" width="160" height="26" as="geometry" />
        </mxCell>
        <mxCell id="tnhocRQcM_d4h_FGvi7k-1" value="" style="endArrow=classic;html=1;rounded=0;" parent="1" source="bo5SSvQVIFfWiV_Lwgm2-63" target="bo5SSvQVIFfWiV_Lwgm2-63" edge="1">
          <mxGeometry width="50" height="50" relative="1" as="geometry">
            <mxPoint x="610" y="320" as="sourcePoint" />
            <mxPoint x="660" y="270" as="targetPoint" />
            <Array as="points">
              <mxPoint x="310" y="230" />
            </Array>
          </mxGeometry>
        </mxCell>
        <mxCell id="tnhocRQcM_d4h_FGvi7k-2" value="" style="endArrow=classic;html=1;rounded=0;" parent="1" source="bo5SSvQVIFfWiV_Lwgm2-8" target="bo5SSvQVIFfWiV_Lwgm2-13" edge="1">
          <mxGeometry width="50" height="50" relative="1" as="geometry">
            <mxPoint x="520" y="320" as="sourcePoint" />
            <mxPoint x="570" y="270" as="targetPoint" />
          </mxGeometry>
        </mxCell>
        <mxCell id="tnhocRQcM_d4h_FGvi7k-3" value="" style="endArrow=classic;html=1;rounded=0;" parent="1" source="bo5SSvQVIFfWiV_Lwgm2-4" target="bo5SSvQVIFfWiV_Lwgm2-9" edge="1">
          <mxGeometry width="50" height="50" relative="1" as="geometry">
            <mxPoint x="610" y="130" as="sourcePoint" />
            <mxPoint x="457" y="330" as="targetPoint" />
          </mxGeometry>
        </mxCell>
        <mxCell id="tnhocRQcM_d4h_FGvi7k-5" value="" style="endArrow=classic;html=1;rounded=0;entryX=0.5;entryY=0;entryDx=0;entryDy=0;" parent="1" source="l9xUXGm3okjoMGRfIjiB-4" target="tnhocRQcM_d4h_FGvi7k-6" edge="1">
          <mxGeometry width="50" height="50" relative="1" as="geometry">
            <mxPoint x="420.00000000000006" y="406.00200000000007" as="sourcePoint" />
            <mxPoint x="426.2036228068792" y="579.75" as="targetPoint" />
            <Array as="points">
              <mxPoint x="420" y="470" />
              <mxPoint x="710" y="470" />
            </Array>
          </mxGeometry>
        </mxCell>
        <mxCell id="tnhocRQcM_d4h_FGvi7k-32" value="" style="edgeStyle=orthogonalEdgeStyle;rounded=0;orthogonalLoop=1;jettySize=auto;html=1;entryX=0.639;entryY=0.002;entryDx=0;entryDy=0;entryPerimeter=0;" parent="1" source="tnhocRQcM_d4h_FGvi7k-6" target="bo5SSvQVIFfWiV_Lwgm2-29" edge="1">
          <mxGeometry relative="1" as="geometry">
            <mxPoint x="710" y="850" as="targetPoint" />
            <Array as="points">
              <mxPoint x="710" y="820" />
              <mxPoint x="426" y="820" />
            </Array>
          </mxGeometry>
        </mxCell>
        <mxCell id="tnhocRQcM_d4h_FGvi7k-6" value="FacilityService" style="swimlane;fontStyle=1;align=center;verticalAlign=top;childLayout=stackLayout;horizontal=1;startSize=26;horizontalStack=0;resizeParent=1;resizeParentMax=0;resizeLast=0;collapsible=1;marginBottom=0;whiteSpace=wrap;html=1;" parent="1" vertex="1">
          <mxGeometry x="440" y="560" width="580" height="220" as="geometry" />
        </mxCell>
        <mxCell id="tnhocRQcM_d4h_FGvi7k-8" value="- facilityRepo : FacilityRepo" style="text;strokeColor=none;fillColor=none;align=left;verticalAlign=top;spacingLeft=4;spacingRight=4;overflow=hidden;rotatable=0;points=[[0,0.5],[1,0.5]];portConstraint=eastwest;whiteSpace=wrap;html=1;" parent="tnhocRQcM_d4h_FGvi7k-6" vertex="1">
          <mxGeometry y="26" width="580" height="26" as="geometry" />
        </mxCell>
        <mxCell id="tnhocRQcM_d4h_FGvi7k-9" value="- overflowRepo : OverflowRepo" style="text;strokeColor=none;fillColor=none;align=left;verticalAlign=top;spacingLeft=4;spacingRight=4;overflow=hidden;rotatable=0;points=[[0,0.5],[1,0.5]];portConstraint=eastwest;whiteSpace=wrap;html=1;" parent="tnhocRQcM_d4h_FGvi7k-6" vertex="1">
          <mxGeometry y="52" width="580" height="26" as="geometry" />
        </mxCell>
        <mxCell id="tnhocRQcM_d4h_FGvi7k-10" value="- permitRepo : PermitRepo" style="text;strokeColor=none;fillColor=none;align=left;verticalAlign=top;spacingLeft=4;spacingRight=4;overflow=hidden;rotatable=0;points=[[0,0.5],[1,0.5]];portConstraint=eastwest;whiteSpace=wrap;html=1;" parent="tnhocRQcM_d4h_FGvi7k-6" vertex="1">
          <mxGeometry y="78" width="580" height="26" as="geometry" />
        </mxCell>
        <mxCell id="tnhocRQcM_d4h_FGvi7k-11" value="- incidentRepo : IncidentRepo" style="text;strokeColor=none;fillColor=none;align=left;verticalAlign=top;spacingLeft=4;spacingRight=4;overflow=hidden;rotatable=0;points=[[0,0.5],[1,0.5]];portConstraint=eastwest;whiteSpace=wrap;html=1;" parent="tnhocRQcM_d4h_FGvi7k-6" vertex="1">
          <mxGeometry y="104" width="580" height="26" as="geometry" />
        </mxCell>
        <mxCell id="tnhocRQcM_d4h_FGvi7k-7" value="" style="line;strokeWidth=1;fillColor=none;align=left;verticalAlign=middle;spacingTop=-1;spacingLeft=3;spacingRight=3;rotatable=0;labelPosition=right;points=[];portConstraint=eastwest;strokeColor=inherit;" parent="tnhocRQcM_d4h_FGvi7k-6" vertex="1">
          <mxGeometry y="130" width="580" height="4" as="geometry" />
        </mxCell>
        <mxCell id="tnhocRQcM_d4h_FGvi7k-12" value="+ GetAllData() : ObservableCollection&amp;lt;Facility&amp;gt;" style="text;strokeColor=none;fillColor=none;align=left;verticalAlign=top;spacingLeft=4;spacingRight=4;overflow=hidden;rotatable=0;points=[[0,0.5],[1,0.5]];portConstraint=eastwest;whiteSpace=wrap;html=1;" parent="tnhocRQcM_d4h_FGvi7k-6" vertex="1">
          <mxGeometry y="134" width="580" height="26" as="geometry" />
        </mxCell>
        <mxCell id="l9xUXGm3okjoMGRfIjiB-5" value="+ AddPermitsToFacility(facilities : ObservableCollection&amp;lt;Facility&amp;gt;) : ObservableCollection&amp;lt;Permit&amp;gt;" style="text;strokeColor=none;fillColor=none;align=left;verticalAlign=top;spacingLeft=4;spacingRight=4;overflow=hidden;rotatable=0;points=[[0,0.5],[1,0.5]];portConstraint=eastwest;whiteSpace=wrap;html=1;" parent="tnhocRQcM_d4h_FGvi7k-6" vertex="1">
          <mxGeometry y="160" width="580" height="60" as="geometry" />
        </mxCell>
        <mxCell id="tnhocRQcM_d4h_FGvi7k-33" value="" style="endArrow=classic;html=1;rounded=0;entryX=0.409;entryY=0.017;entryDx=0;entryDy=0;entryPerimeter=0;" parent="1" edge="1">
          <mxGeometry width="50" height="50" relative="1" as="geometry">
            <mxPoint x="710" y="820" as="sourcePoint" />
            <mxPoint x="710.79" y="877.1139999999998" as="targetPoint" />
          </mxGeometry>
        </mxCell>
        <mxCell id="tnhocRQcM_d4h_FGvi7k-34" value="" style="endArrow=classic;html=1;rounded=0;entryX=0.286;entryY=0.004;entryDx=0;entryDy=0;entryPerimeter=0;" parent="1" target="l9xUXGm3okjoMGRfIjiB-20" edge="1">
          <mxGeometry width="50" height="50" relative="1" as="geometry">
            <mxPoint x="710" y="820" as="sourcePoint" />
            <mxPoint x="1047.83" y="875.662" as="targetPoint" />
            <Array as="points">
              <mxPoint x="910" y="820" />
              <mxPoint x="1048" y="820" />
            </Array>
          </mxGeometry>
        </mxCell>
        <mxCell id="tnhocRQcM_d4h_FGvi7k-37" value="" style="endArrow=classic;html=1;rounded=0;entryX=0.411;entryY=0.008;entryDx=0;entryDy=0;entryPerimeter=0;" parent="1" target="l9xUXGm3okjoMGRfIjiB-31" edge="1">
          <mxGeometry width="50" height="50" relative="1" as="geometry">
            <mxPoint x="1050" y="820" as="sourcePoint" />
            <mxPoint x="1424.6" y="877.356" as="targetPoint" />
            <Array as="points">
              <mxPoint x="1260" y="820" />
              <mxPoint x="1425" y="820" />
            </Array>
          </mxGeometry>
        </mxCell>
        <mxCell id="tnhocRQcM_d4h_FGvi7k-38" value="" style="endArrow=block;html=1;rounded=0;entryX=0.507;entryY=0.992;entryDx=0;entryDy=0;entryPerimeter=0;endFill=0;exitX=0.287;exitY=-0.006;exitDx=0;exitDy=0;exitPerimeter=0;" parent="1" source="l9xUXGm3okjoMGRfIjiB-31" target="kcjF0Bzhrz3PN26yfvxr-10" edge="1">
          <mxGeometry width="50" height="50" relative="1" as="geometry">
            <mxPoint x="1390" y="870" as="sourcePoint" />
            <mxPoint x="920" y="860" as="targetPoint" />
            <Array as="points">
              <mxPoint x="1390" y="800" />
              <mxPoint x="1280" y="800" />
              <mxPoint x="1170" y="800" />
            </Array>
          </mxGeometry>
        </mxCell>
        <mxCell id="tnhocRQcM_d4h_FGvi7k-40" value="" style="endArrow=none;html=1;rounded=0;exitX=0.473;exitY=0.002;exitDx=0;exitDy=0;exitPerimeter=0;" parent="1" source="l9xUXGm3okjoMGRfIjiB-20" edge="1">
          <mxGeometry width="50" height="50" relative="1" as="geometry">
            <mxPoint x="1102.08" y="874.9359999999999" as="sourcePoint" />
            <mxPoint x="1180" y="800" as="targetPoint" />
            <Array as="points">
              <mxPoint x="1102" y="800" />
            </Array>
          </mxGeometry>
        </mxCell>
        <mxCell id="tnhocRQcM_d4h_FGvi7k-41" value="" style="endArrow=none;html=1;rounded=0;exitX=0.5;exitY=0;exitDx=0;exitDy=0;" parent="1" edge="1">
          <mxGeometry width="50" height="50" relative="1" as="geometry">
            <mxPoint x="739" y="873" as="sourcePoint" />
            <mxPoint x="1100" y="800" as="targetPoint" />
            <Array as="points">
              <mxPoint x="740" y="800" />
            </Array>
          </mxGeometry>
        </mxCell>
        <mxCell id="tnhocRQcM_d4h_FGvi7k-42" value="" style="endArrow=none;html=1;rounded=0;exitX=0.75;exitY=0;exitDx=0;exitDy=0;" parent="1" source="bo5SSvQVIFfWiV_Lwgm2-29" edge="1">
          <mxGeometry width="50" height="50" relative="1" as="geometry">
            <mxPoint x="710" y="790" as="sourcePoint" />
            <mxPoint x="760" y="800" as="targetPoint" />
            <Array as="points">
              <mxPoint x="457" y="800" />
            </Array>
          </mxGeometry>
        </mxCell>
        <mxCell id="tnhocRQcM_d4h_FGvi7k-43" value="" style="endArrow=classic;html=1;rounded=0;" parent="1" source="kcjF0Bzhrz3PN26yfvxr-14" target="bo5SSvQVIFfWiV_Lwgm2-54" edge="1">
          <mxGeometry width="50" height="50" relative="1" as="geometry">
            <mxPoint x="810" y="960" as="sourcePoint" />
            <mxPoint x="860" y="910" as="targetPoint" />
          </mxGeometry>
        </mxCell>
        <mxCell id="tnhocRQcM_d4h_FGvi7k-44" value="" style="endArrow=classic;html=1;rounded=0;exitX=0.564;exitY=0.975;exitDx=0;exitDy=0;exitPerimeter=0;" parent="1" source="l9xUXGm3okjoMGRfIjiB-19" target="IFbbEQ-6FJ6GLovj2k8C-5" edge="1">
          <mxGeometry width="50" height="50" relative="1" as="geometry">
            <mxPoint x="727.2199999999998" y="1117.3400000000001" as="sourcePoint" />
            <mxPoint x="630" y="950" as="targetPoint" />
          </mxGeometry>
        </mxCell>
        <mxCell id="tnhocRQcM_d4h_FGvi7k-45" value="" style="endArrow=classic;html=1;rounded=0;exitX=0.463;exitY=1.013;exitDx=0;exitDy=0;exitPerimeter=0;entryX=0.5;entryY=0;entryDx=0;entryDy=0;" parent="1" source="l9xUXGm3okjoMGRfIjiB-30" target="IFbbEQ-6FJ6GLovj2k8C-1" edge="1">
          <mxGeometry width="50" height="50" relative="1" as="geometry">
            <mxPoint x="1111.0699999999997" y="1112.894" as="sourcePoint" />
            <mxPoint x="1000" y="950" as="targetPoint" />
          </mxGeometry>
        </mxCell>
        <mxCell id="tnhocRQcM_d4h_FGvi7k-46" value="" style="endArrow=classic;html=1;rounded=0;exitX=0.327;exitY=0.985;exitDx=0;exitDy=0;exitPerimeter=0;" parent="1" source="l9xUXGm3okjoMGRfIjiB-41" target="IFbbEQ-6FJ6GLovj2k8C-9" edge="1">
          <mxGeometry width="50" height="50" relative="1" as="geometry">
            <mxPoint x="1408.0700000000002" y="1112.894" as="sourcePoint" />
            <mxPoint x="1140" y="950" as="targetPoint" />
          </mxGeometry>
        </mxCell>
        <mxCell id="tnhocRQcM_d4h_FGvi7k-47" value="" style="endArrow=classic;html=1;rounded=0;exitX=0.425;exitY=1.049;exitDx=0;exitDy=0;exitPerimeter=0;entryX=0.58;entryY=0.033;entryDx=0;entryDy=0;entryPerimeter=0;" parent="1" source="bo5SSvQVIFfWiV_Lwgm2-12" target="bo5SSvQVIFfWiV_Lwgm2-25" edge="1">
          <mxGeometry width="50" height="50" relative="1" as="geometry">
            <mxPoint x="630" y="680" as="sourcePoint" />
            <mxPoint x="680" y="630" as="targetPoint" />
          </mxGeometry>
        </mxCell>
        <mxCell id="l9xUXGm3okjoMGRfIjiB-9" value="OverflowRepo&amp;lt;T&amp;gt;" style="swimlane;fontStyle=1;align=center;verticalAlign=top;childLayout=stackLayout;horizontal=1;startSize=26;horizontalStack=0;resizeParent=1;resizeParentMax=0;resizeLast=0;collapsible=1;marginBottom=0;whiteSpace=wrap;html=1;" parent="1" vertex="1">
          <mxGeometry x="590" y="880" width="280" height="272" as="geometry" />
        </mxCell>
        <mxCell id="l9xUXGm3okjoMGRfIjiB-10" value="- connectionString : String" style="text;strokeColor=none;fillColor=none;align=left;verticalAlign=top;spacingLeft=4;spacingRight=4;overflow=hidden;rotatable=0;points=[[0,0.5],[1,0.5]];portConstraint=eastwest;whiteSpace=wrap;html=1;" parent="l9xUXGm3okjoMGRfIjiB-9" vertex="1">
          <mxGeometry y="26" width="280" height="26" as="geometry" />
        </mxCell>
        <mxCell id="l9xUXGm3okjoMGRfIjiB-11" value="- getAllQuery : String" style="text;strokeColor=none;fillColor=none;align=left;verticalAlign=top;spacingLeft=4;spacingRight=4;overflow=hidden;rotatable=0;points=[[0,0.5],[1,0.5]];portConstraint=eastwest;whiteSpace=wrap;html=1;" parent="l9xUXGm3okjoMGRfIjiB-9" vertex="1">
          <mxGeometry y="52" width="280" height="26" as="geometry" />
        </mxCell>
        <mxCell id="l9xUXGm3okjoMGRfIjiB-12" value="" style="line;strokeWidth=1;fillColor=none;align=left;verticalAlign=middle;spacingTop=-1;spacingLeft=3;spacingRight=3;rotatable=0;labelPosition=right;points=[];portConstraint=eastwest;strokeColor=inherit;" parent="l9xUXGm3okjoMGRfIjiB-9" vertex="1">
          <mxGeometry y="78" width="280" height="8" as="geometry" />
        </mxCell>
        <mxCell id="l9xUXGm3okjoMGRfIjiB-13" value="+ GetAll() : ObservableCollection&amp;lt;T&amp;gt;" style="text;strokeColor=none;fillColor=none;align=left;verticalAlign=top;spacingLeft=4;spacingRight=4;overflow=hidden;rotatable=0;points=[[0,0.5],[1,0.5]];portConstraint=eastwest;whiteSpace=wrap;html=1;" parent="l9xUXGm3okjoMGRfIjiB-9" vertex="1">
          <mxGeometry y="86" width="280" height="26" as="geometry" />
        </mxCell>
        <mxCell id="l9xUXGm3okjoMGRfIjiB-14" value="+ GetStringFromDB() : String" style="text;strokeColor=none;fillColor=none;align=left;verticalAlign=top;spacingLeft=4;spacingRight=4;overflow=hidden;rotatable=0;points=[[0,0.5],[1,0.5]];portConstraint=eastwest;whiteSpace=wrap;html=1;" parent="l9xUXGm3okjoMGRfIjiB-9" vertex="1">
          <mxGeometry y="112" width="280" height="26" as="geometry" />
        </mxCell>
        <mxCell id="l9xUXGm3okjoMGRfIjiB-15" value="+ FromStringToType(reader : SqlDataReader) : T" style="text;strokeColor=none;fillColor=none;align=left;verticalAlign=top;spacingLeft=4;spacingRight=4;overflow=hidden;rotatable=0;points=[[0,0.5],[1,0.5]];portConstraint=eastwest;whiteSpace=wrap;html=1;" parent="l9xUXGm3okjoMGRfIjiB-9" vertex="1">
          <mxGeometry y="138" width="280" height="22" as="geometry" />
        </mxCell>
        <mxCell id="l9xUXGm3okjoMGRfIjiB-16" value="+ GetById(id : Int) : T" style="text;strokeColor=none;fillColor=none;align=left;verticalAlign=top;spacingLeft=4;spacingRight=4;overflow=hidden;rotatable=0;points=[[0,0.5],[1,0.5]];portConstraint=eastwest;whiteSpace=wrap;html=1;" parent="l9xUXGm3okjoMGRfIjiB-9" vertex="1">
          <mxGeometry y="160" width="280" height="26" as="geometry" />
        </mxCell>
        <mxCell id="l9xUXGm3okjoMGRfIjiB-17" value="+ Update(entity : T)" style="text;strokeColor=none;fillColor=none;align=left;verticalAlign=top;spacingLeft=4;spacingRight=4;overflow=hidden;rotatable=0;points=[[0,0.5],[1,0.5]];portConstraint=eastwest;whiteSpace=wrap;html=1;" parent="l9xUXGm3okjoMGRfIjiB-9" vertex="1">
          <mxGeometry y="186" width="280" height="26" as="geometry" />
        </mxCell>
        <mxCell id="l9xUXGm3okjoMGRfIjiB-18" value="+ Remove(entity : T)" style="text;strokeColor=none;fillColor=none;align=left;verticalAlign=top;spacingLeft=4;spacingRight=4;overflow=hidden;rotatable=0;points=[[0,0.5],[1,0.5]];portConstraint=eastwest;whiteSpace=wrap;html=1;" parent="l9xUXGm3okjoMGRfIjiB-9" vertex="1">
          <mxGeometry y="212" width="280" height="26" as="geometry" />
        </mxCell>
        <mxCell id="l9xUXGm3okjoMGRfIjiB-19" value="+ Add(entity : T)" style="text;strokeColor=none;fillColor=none;align=left;verticalAlign=top;spacingLeft=4;spacingRight=4;overflow=hidden;rotatable=0;points=[[0,0.5],[1,0.5]];portConstraint=eastwest;whiteSpace=wrap;html=1;" parent="l9xUXGm3okjoMGRfIjiB-9" vertex="1">
          <mxGeometry y="238" width="280" height="34" as="geometry" />
        </mxCell>
        <mxCell id="l9xUXGm3okjoMGRfIjiB-20" value="PermitRepo&amp;lt;T&amp;gt;" style="swimlane;fontStyle=1;align=center;verticalAlign=top;childLayout=stackLayout;horizontal=1;startSize=26;horizontalStack=0;resizeParent=1;resizeParentMax=0;resizeLast=0;collapsible=1;marginBottom=0;whiteSpace=wrap;html=1;" parent="1" vertex="1">
          <mxGeometry x="970" y="880" width="280" height="272" as="geometry" />
        </mxCell>
        <mxCell id="l9xUXGm3okjoMGRfIjiB-21" value="- connectionString : String" style="text;strokeColor=none;fillColor=none;align=left;verticalAlign=top;spacingLeft=4;spacingRight=4;overflow=hidden;rotatable=0;points=[[0,0.5],[1,0.5]];portConstraint=eastwest;whiteSpace=wrap;html=1;" parent="l9xUXGm3okjoMGRfIjiB-20" vertex="1">
          <mxGeometry y="26" width="280" height="26" as="geometry" />
        </mxCell>
        <mxCell id="l9xUXGm3okjoMGRfIjiB-22" value="- getAllQuery : String" style="text;strokeColor=none;fillColor=none;align=left;verticalAlign=top;spacingLeft=4;spacingRight=4;overflow=hidden;rotatable=0;points=[[0,0.5],[1,0.5]];portConstraint=eastwest;whiteSpace=wrap;html=1;" parent="l9xUXGm3okjoMGRfIjiB-20" vertex="1">
          <mxGeometry y="52" width="280" height="26" as="geometry" />
        </mxCell>
        <mxCell id="l9xUXGm3okjoMGRfIjiB-23" value="" style="line;strokeWidth=1;fillColor=none;align=left;verticalAlign=middle;spacingTop=-1;spacingLeft=3;spacingRight=3;rotatable=0;labelPosition=right;points=[];portConstraint=eastwest;strokeColor=inherit;" parent="l9xUXGm3okjoMGRfIjiB-20" vertex="1">
          <mxGeometry y="78" width="280" height="8" as="geometry" />
        </mxCell>
        <mxCell id="l9xUXGm3okjoMGRfIjiB-24" value="+ GetAll() : ObservableCollection&amp;lt;T&amp;gt;" style="text;strokeColor=none;fillColor=none;align=left;verticalAlign=top;spacingLeft=4;spacingRight=4;overflow=hidden;rotatable=0;points=[[0,0.5],[1,0.5]];portConstraint=eastwest;whiteSpace=wrap;html=1;" parent="l9xUXGm3okjoMGRfIjiB-20" vertex="1">
          <mxGeometry y="86" width="280" height="26" as="geometry" />
        </mxCell>
        <mxCell id="l9xUXGm3okjoMGRfIjiB-25" value="+ GetStringFromDB() : String" style="text;strokeColor=none;fillColor=none;align=left;verticalAlign=top;spacingLeft=4;spacingRight=4;overflow=hidden;rotatable=0;points=[[0,0.5],[1,0.5]];portConstraint=eastwest;whiteSpace=wrap;html=1;" parent="l9xUXGm3okjoMGRfIjiB-20" vertex="1">
          <mxGeometry y="112" width="280" height="26" as="geometry" />
        </mxCell>
        <mxCell id="l9xUXGm3okjoMGRfIjiB-26" value="+ FromStringToType(reader : SqlDataReader) : T" style="text;strokeColor=none;fillColor=none;align=left;verticalAlign=top;spacingLeft=4;spacingRight=4;overflow=hidden;rotatable=0;points=[[0,0.5],[1,0.5]];portConstraint=eastwest;whiteSpace=wrap;html=1;" parent="l9xUXGm3okjoMGRfIjiB-20" vertex="1">
          <mxGeometry y="138" width="280" height="22" as="geometry" />
        </mxCell>
        <mxCell id="l9xUXGm3okjoMGRfIjiB-27" value="+ GetById(id : Int) : T" style="text;strokeColor=none;fillColor=none;align=left;verticalAlign=top;spacingLeft=4;spacingRight=4;overflow=hidden;rotatable=0;points=[[0,0.5],[1,0.5]];portConstraint=eastwest;whiteSpace=wrap;html=1;" parent="l9xUXGm3okjoMGRfIjiB-20" vertex="1">
          <mxGeometry y="160" width="280" height="26" as="geometry" />
        </mxCell>
        <mxCell id="l9xUXGm3okjoMGRfIjiB-28" value="+ Update(entity : T)" style="text;strokeColor=none;fillColor=none;align=left;verticalAlign=top;spacingLeft=4;spacingRight=4;overflow=hidden;rotatable=0;points=[[0,0.5],[1,0.5]];portConstraint=eastwest;whiteSpace=wrap;html=1;" parent="l9xUXGm3okjoMGRfIjiB-20" vertex="1">
          <mxGeometry y="186" width="280" height="26" as="geometry" />
        </mxCell>
        <mxCell id="l9xUXGm3okjoMGRfIjiB-29" value="+ Remove(entity : T)" style="text;strokeColor=none;fillColor=none;align=left;verticalAlign=top;spacingLeft=4;spacingRight=4;overflow=hidden;rotatable=0;points=[[0,0.5],[1,0.5]];portConstraint=eastwest;whiteSpace=wrap;html=1;" parent="l9xUXGm3okjoMGRfIjiB-20" vertex="1">
          <mxGeometry y="212" width="280" height="26" as="geometry" />
        </mxCell>
        <mxCell id="l9xUXGm3okjoMGRfIjiB-30" value="+ Add(entity : T)" style="text;strokeColor=none;fillColor=none;align=left;verticalAlign=top;spacingLeft=4;spacingRight=4;overflow=hidden;rotatable=0;points=[[0,0.5],[1,0.5]];portConstraint=eastwest;whiteSpace=wrap;html=1;" parent="l9xUXGm3okjoMGRfIjiB-20" vertex="1">
          <mxGeometry y="238" width="280" height="34" as="geometry" />
        </mxCell>
        <mxCell id="l9xUXGm3okjoMGRfIjiB-31" value="IncidentRepo&amp;lt;T&amp;gt;" style="swimlane;fontStyle=1;align=center;verticalAlign=top;childLayout=stackLayout;horizontal=1;startSize=26;horizontalStack=0;resizeParent=1;resizeParentMax=0;resizeLast=0;collapsible=1;marginBottom=0;whiteSpace=wrap;html=1;" parent="1" vertex="1">
          <mxGeometry x="1310" y="880" width="280" height="272" as="geometry" />
        </mxCell>
        <mxCell id="l9xUXGm3okjoMGRfIjiB-32" value="- connectionString : String" style="text;strokeColor=none;fillColor=none;align=left;verticalAlign=top;spacingLeft=4;spacingRight=4;overflow=hidden;rotatable=0;points=[[0,0.5],[1,0.5]];portConstraint=eastwest;whiteSpace=wrap;html=1;" parent="l9xUXGm3okjoMGRfIjiB-31" vertex="1">
          <mxGeometry y="26" width="280" height="26" as="geometry" />
        </mxCell>
        <mxCell id="l9xUXGm3okjoMGRfIjiB-33" value="- getAllQuery : String" style="text;strokeColor=none;fillColor=none;align=left;verticalAlign=top;spacingLeft=4;spacingRight=4;overflow=hidden;rotatable=0;points=[[0,0.5],[1,0.5]];portConstraint=eastwest;whiteSpace=wrap;html=1;" parent="l9xUXGm3okjoMGRfIjiB-31" vertex="1">
          <mxGeometry y="52" width="280" height="26" as="geometry" />
        </mxCell>
        <mxCell id="l9xUXGm3okjoMGRfIjiB-34" value="" style="line;strokeWidth=1;fillColor=none;align=left;verticalAlign=middle;spacingTop=-1;spacingLeft=3;spacingRight=3;rotatable=0;labelPosition=right;points=[];portConstraint=eastwest;strokeColor=inherit;" parent="l9xUXGm3okjoMGRfIjiB-31" vertex="1">
          <mxGeometry y="78" width="280" height="8" as="geometry" />
        </mxCell>
        <mxCell id="l9xUXGm3okjoMGRfIjiB-35" value="+ GetAll() : ObservableCollection&amp;lt;T&amp;gt;" style="text;strokeColor=none;fillColor=none;align=left;verticalAlign=top;spacingLeft=4;spacingRight=4;overflow=hidden;rotatable=0;points=[[0,0.5],[1,0.5]];portConstraint=eastwest;whiteSpace=wrap;html=1;" parent="l9xUXGm3okjoMGRfIjiB-31" vertex="1">
          <mxGeometry y="86" width="280" height="26" as="geometry" />
        </mxCell>
        <mxCell id="l9xUXGm3okjoMGRfIjiB-36" value="+ GetStringFromDB() : String" style="text;strokeColor=none;fillColor=none;align=left;verticalAlign=top;spacingLeft=4;spacingRight=4;overflow=hidden;rotatable=0;points=[[0,0.5],[1,0.5]];portConstraint=eastwest;whiteSpace=wrap;html=1;" parent="l9xUXGm3okjoMGRfIjiB-31" vertex="1">
          <mxGeometry y="112" width="280" height="26" as="geometry" />
        </mxCell>
        <mxCell id="l9xUXGm3okjoMGRfIjiB-37" value="+ FromStringToType(reader : SqlDataReader) : T" style="text;strokeColor=none;fillColor=none;align=left;verticalAlign=top;spacingLeft=4;spacingRight=4;overflow=hidden;rotatable=0;points=[[0,0.5],[1,0.5]];portConstraint=eastwest;whiteSpace=wrap;html=1;" parent="l9xUXGm3okjoMGRfIjiB-31" vertex="1">
          <mxGeometry y="138" width="280" height="22" as="geometry" />
        </mxCell>
        <mxCell id="l9xUXGm3okjoMGRfIjiB-38" value="+ GetById(id : Int) : T" style="text;strokeColor=none;fillColor=none;align=left;verticalAlign=top;spacingLeft=4;spacingRight=4;overflow=hidden;rotatable=0;points=[[0,0.5],[1,0.5]];portConstraint=eastwest;whiteSpace=wrap;html=1;" parent="l9xUXGm3okjoMGRfIjiB-31" vertex="1">
          <mxGeometry y="160" width="280" height="26" as="geometry" />
        </mxCell>
        <mxCell id="l9xUXGm3okjoMGRfIjiB-39" value="+ Update(entity : T)" style="text;strokeColor=none;fillColor=none;align=left;verticalAlign=top;spacingLeft=4;spacingRight=4;overflow=hidden;rotatable=0;points=[[0,0.5],[1,0.5]];portConstraint=eastwest;whiteSpace=wrap;html=1;" parent="l9xUXGm3okjoMGRfIjiB-31" vertex="1">
          <mxGeometry y="186" width="280" height="26" as="geometry" />
        </mxCell>
        <mxCell id="l9xUXGm3okjoMGRfIjiB-40" value="+ Remove(entity : T)" style="text;strokeColor=none;fillColor=none;align=left;verticalAlign=top;spacingLeft=4;spacingRight=4;overflow=hidden;rotatable=0;points=[[0,0.5],[1,0.5]];portConstraint=eastwest;whiteSpace=wrap;html=1;" parent="l9xUXGm3okjoMGRfIjiB-31" vertex="1">
          <mxGeometry y="212" width="280" height="26" as="geometry" />
        </mxCell>
        <mxCell id="l9xUXGm3okjoMGRfIjiB-41" value="+ Add(entity : T)" style="text;strokeColor=none;fillColor=none;align=left;verticalAlign=top;spacingLeft=4;spacingRight=4;overflow=hidden;rotatable=0;points=[[0,0.5],[1,0.5]];portConstraint=eastwest;whiteSpace=wrap;html=1;" parent="l9xUXGm3okjoMGRfIjiB-31" vertex="1">
          <mxGeometry y="238" width="280" height="34" as="geometry" />
        </mxCell>
      </root>
    </mxGraphModel>
  </diagram>
  <diagram id="YcF35akn79CmMVwzbGjt" name="SD UC2">
    <mxGraphModel dx="778" dy="413" grid="1" gridSize="10" guides="1" tooltips="1" connect="1" arrows="1" fold="1" page="1" pageScale="1" pageWidth="827" pageHeight="1169" math="0" shadow="0">
      <root>
        <mxCell id="0" />
        <mxCell id="1" parent="0" />
        <mxCell id="gqdGz9EBeC2640gCyb00-13" value="" style="rounded=1;whiteSpace=wrap;html=1;imageHeight=24;recursiveResize=0;" vertex="1" parent="1">
          <mxGeometry x="560" y="290" width="1800" height="150" as="geometry" />
        </mxCell>
        <mxCell id="epYoWbart29TKTmkjoGt-2" style="edgeStyle=orthogonalEdgeStyle;rounded=0;orthogonalLoop=1;jettySize=auto;html=1;dashed=1;endArrow=none;endFill=0;" edge="1" parent="1">
          <mxGeometry relative="1" as="geometry">
            <mxPoint x="829" y="640" as="targetPoint" />
            <mxPoint x="830" y="530" as="sourcePoint" />
            <Array as="points">
              <mxPoint x="830" y="575" />
            </Array>
          </mxGeometry>
        </mxCell>
        <mxCell id="epYoWbart29TKTmkjoGt-4" style="edgeStyle=orthogonalEdgeStyle;rounded=0;orthogonalLoop=1;jettySize=auto;html=1;dashed=1;endArrow=none;endFill=0;" edge="1" parent="1">
          <mxGeometry relative="1" as="geometry">
            <mxPoint x="1344.6100000000001" y="580" as="targetPoint" />
            <mxPoint x="1344.5665217391306" y="130" as="sourcePoint" />
          </mxGeometry>
        </mxCell>
        <mxCell id="epYoWbart29TKTmkjoGt-5" value=": CreateVM" style="rounded=0;whiteSpace=wrap;html=1;" vertex="1" parent="1">
          <mxGeometry x="1285" y="70" width="120" height="60" as="geometry" />
        </mxCell>
        <mxCell id="epYoWbart29TKTmkjoGt-6" style="edgeStyle=orthogonalEdgeStyle;rounded=0;orthogonalLoop=1;jettySize=auto;html=1;dashed=1;endArrow=none;endFill=0;" edge="1" parent="1" source="epYoWbart29TKTmkjoGt-1">
          <mxGeometry relative="1" as="geometry">
            <mxPoint x="1660" y="580" as="targetPoint" />
            <Array as="points">
              <mxPoint x="1660" y="580" />
            </Array>
          </mxGeometry>
        </mxCell>
        <mxCell id="epYoWbart29TKTmkjoGt-7" value=": FacilityRepo" style="rounded=0;whiteSpace=wrap;html=1;" vertex="1" parent="1">
          <mxGeometry x="1600" y="70" width="120" height="60" as="geometry" />
        </mxCell>
        <mxCell id="epYoWbart29TKTmkjoGt-8" style="edgeStyle=orthogonalEdgeStyle;rounded=0;orthogonalLoop=1;jettySize=auto;html=1;dashed=1;endArrow=none;endFill=0;" edge="1" parent="1">
          <mxGeometry relative="1" as="geometry">
            <mxPoint x="2330" y="585" as="targetPoint" />
            <mxPoint x="2330" y="135" as="sourcePoint" />
          </mxGeometry>
        </mxCell>
        <mxCell id="epYoWbart29TKTmkjoGt-9" value="createFacility" style="html=1;verticalAlign=bottom;startArrow=none;startFill=0;endArrow=block;startSize=8;curved=0;rounded=0;" edge="1" parent="1">
          <mxGeometry width="60" relative="1" as="geometry">
            <mxPoint x="620" y="160" as="sourcePoint" />
            <mxPoint x="826" y="160" as="targetPoint" />
            <Array as="points">
              <mxPoint x="801" y="160" />
            </Array>
          </mxGeometry>
        </mxCell>
        <mxCell id="epYoWbart29TKTmkjoGt-11" value="" style="html=1;points=[[0,0,0,0,5],[0,1,0,0,-5],[1,0,0,0,5],[1,1,0,0,-5]];perimeter=orthogonalPerimeter;outlineConnect=0;targetShapes=umlLifeline;portConstraint=eastwest;newEdgeStyle={&quot;curved&quot;:0,&quot;rounded&quot;:0};" vertex="1" parent="1">
          <mxGeometry x="1340" y="180" width="10" height="340" as="geometry" />
        </mxCell>
        <mxCell id="epYoWbart29TKTmkjoGt-12" value="" style="endArrow=classic;html=1;rounded=0;exitX=1.5;exitY=0.079;exitDx=0;exitDy=0;exitPerimeter=0;" edge="1" parent="1" target="epYoWbart29TKTmkjoGt-11" source="epYoWbart29TKTmkjoGt-10">
          <mxGeometry width="50" height="50" relative="1" as="geometry">
            <mxPoint x="1025" y="180" as="sourcePoint" />
            <mxPoint x="1220" y="180" as="targetPoint" />
          </mxGeometry>
        </mxCell>
        <mxCell id="epYoWbart29TKTmkjoGt-13" value="&lt;span style=&quot;color: rgba(0, 0, 0, 0); font-family: monospace; font-size: 0px; text-align: start; background-color: rgb(251, 251, 251);&quot;&gt;%3CmxGraphModel%3E%3Croot%3E%3CmxCell%20id%3D%220%22%2F%3E%3CmxCell%20id%3D%221%22%20parent%3D%220%22%2F%3E%3CmxCell%20id%3D%222%22%20value%3D%22FromStringToFacility(OBNumber%2C%26amp%3Bnbsp%3B%26lt%3Bdiv%26gt%3BUDLNumber%2C%20Name%2C%20MinimumPoolSize)%26lt%3B%2Fdiv%26gt%3B%22%20style%3D%22edgeLabel%3Bhtml%3D1%3Balign%3Dcenter%3BverticalAlign%3Dmiddle%3Bresizable%3D0%3Bpoints%3D%5B%5D%3B%22%20vertex%3D%221%22%20connectable%3D%220%22%20parent%3D%221%22%3E%3CmxGeometry%20x%3D%221211.454545454546%22%20y%3D%22860%22%20as%3D%22geometry%22%2F%3E%3C%2FmxCell%3E%3C%2Froot%3E%3C%2FmxGraphModel%3E&lt;/span&gt;" style="edgeLabel;html=1;align=center;verticalAlign=middle;resizable=0;points=[];" vertex="1" connectable="0" parent="epYoWbart29TKTmkjoGt-12">
          <mxGeometry x="-0.2141" y="-2" relative="1" as="geometry">
            <mxPoint x="23" y="-12" as="offset" />
          </mxGeometry>
        </mxCell>
        <mxCell id="epYoWbart29TKTmkjoGt-16" value="" style="endArrow=classic;html=1;rounded=0;" edge="1" parent="1" source="epYoWbart29TKTmkjoGt-32">
          <mxGeometry width="50" height="50" relative="1" as="geometry">
            <mxPoint x="1405" y="224.5" as="sourcePoint" />
            <mxPoint x="1660" y="224.5" as="targetPoint" />
          </mxGeometry>
        </mxCell>
        <mxCell id="epYoWbart29TKTmkjoGt-17" value="Add(Facility)" style="edgeLabel;html=1;align=center;verticalAlign=middle;resizable=0;points=[];" vertex="1" connectable="0" parent="epYoWbart29TKTmkjoGt-16">
          <mxGeometry x="-0.3552" y="-2" relative="1" as="geometry">
            <mxPoint x="18" y="-12" as="offset" />
          </mxGeometry>
        </mxCell>
        <mxCell id="epYoWbart29TKTmkjoGt-20" value="" style="endArrow=classic;html=1;rounded=0;entryX=0;entryY=0;entryDx=0;entryDy=5;entryPerimeter=0;" edge="1" parent="1" target="epYoWbart29TKTmkjoGt-22">
          <mxGeometry width="50" height="50" relative="1" as="geometry">
            <mxPoint x="1665" y="240" as="sourcePoint" />
            <mxPoint x="1975" y="240" as="targetPoint" />
            <Array as="points">
              <mxPoint x="1820" y="240" />
            </Array>
          </mxGeometry>
        </mxCell>
        <mxCell id="epYoWbart29TKTmkjoGt-21" value="&lt;span data-teams=&quot;true&quot;&gt;EXEC uspAddFacility(Name&lt;/span&gt;, UDL, OBNumber, MinimumPoolSize, SystemName)" style="edgeLabel;html=1;align=center;verticalAlign=middle;resizable=0;points=[];" vertex="1" connectable="0" parent="epYoWbart29TKTmkjoGt-20">
          <mxGeometry x="-0.3552" y="-2" relative="1" as="geometry">
            <mxPoint x="190" y="-17" as="offset" />
          </mxGeometry>
        </mxCell>
        <mxCell id="epYoWbart29TKTmkjoGt-22" value="" style="html=1;points=[[0,0,0,0,5],[0,1,0,0,-5],[1,0,0,0,5],[1,1,0,0,-5]];perimeter=orthogonalPerimeter;outlineConnect=0;targetShapes=umlLifeline;portConstraint=eastwest;newEdgeStyle={&quot;curved&quot;:0,&quot;rounded&quot;:0};" vertex="1" parent="1">
          <mxGeometry x="2325" y="236" width="10" height="30" as="geometry" />
        </mxCell>
        <mxCell id="epYoWbart29TKTmkjoGt-23" value="" style="endArrow=open;html=1;rounded=0;dashed=1;dashPattern=8 8;endFill=0;" edge="1" parent="1">
          <mxGeometry width="50" height="50" relative="1" as="geometry">
            <mxPoint x="2320" y="264" as="sourcePoint" />
            <mxPoint x="1665" y="264" as="targetPoint" />
          </mxGeometry>
        </mxCell>
        <mxCell id="epYoWbart29TKTmkjoGt-27" value="DB" style="shape=cylinder3;whiteSpace=wrap;html=1;boundedLbl=1;backgroundOutline=1;size=15;" vertex="1" parent="1">
          <mxGeometry x="2300" y="56" width="60" height="80" as="geometry" />
        </mxCell>
        <mxCell id="epYoWbart29TKTmkjoGt-28" value=": FacilityService" style="rounded=0;whiteSpace=wrap;html=1;" vertex="1" parent="1">
          <mxGeometry x="1460" y="70" width="120" height="60" as="geometry" />
        </mxCell>
        <mxCell id="epYoWbart29TKTmkjoGt-29" style="edgeStyle=orthogonalEdgeStyle;rounded=0;orthogonalLoop=1;jettySize=auto;html=1;dashed=1;endArrow=none;endFill=0;" edge="1" parent="1">
          <mxGeometry relative="1" as="geometry">
            <mxPoint x="1525" y="580" as="targetPoint" />
            <mxPoint x="1524.5" y="130" as="sourcePoint" />
          </mxGeometry>
        </mxCell>
        <mxCell id="epYoWbart29TKTmkjoGt-30" value="" style="endArrow=classic;html=1;rounded=0;" edge="1" parent="1" target="epYoWbart29TKTmkjoGt-32">
          <mxGeometry width="50" height="50" relative="1" as="geometry">
            <mxPoint x="1350" y="200" as="sourcePoint" />
            <mxPoint x="1395" y="200" as="targetPoint" />
          </mxGeometry>
        </mxCell>
        <mxCell id="epYoWbart29TKTmkjoGt-31" value="AddToFacilityRepo(Facility)" style="edgeLabel;html=1;align=center;verticalAlign=middle;resizable=0;points=[];" vertex="1" connectable="0" parent="epYoWbart29TKTmkjoGt-30">
          <mxGeometry x="-0.2141" y="-2" relative="1" as="geometry">
            <mxPoint x="13" y="-12" as="offset" />
          </mxGeometry>
        </mxCell>
        <mxCell id="epYoWbart29TKTmkjoGt-32" value="" style="html=1;points=[[0,0,0,0,5],[0,1,0,0,-5],[1,0,0,0,5],[1,1,0,0,-5]];perimeter=orthogonalPerimeter;outlineConnect=0;targetShapes=umlLifeline;portConstraint=eastwest;newEdgeStyle={&quot;curved&quot;:0,&quot;rounded&quot;:0};" vertex="1" parent="1">
          <mxGeometry x="1520" y="200" width="10" height="280" as="geometry" />
        </mxCell>
        <mxCell id="epYoWbart29TKTmkjoGt-33" value="" style="edgeStyle=orthogonalEdgeStyle;rounded=0;orthogonalLoop=1;jettySize=auto;html=1;dashed=1;endArrow=none;endFill=0;" edge="1" parent="1" source="epYoWbart29TKTmkjoGt-7" target="epYoWbart29TKTmkjoGt-1">
          <mxGeometry relative="1" as="geometry">
            <mxPoint x="1660" y="500" as="targetPoint" />
            <mxPoint x="1660" y="130" as="sourcePoint" />
            <Array as="points">
              <mxPoint x="1660" y="240" />
              <mxPoint x="1660" y="240" />
            </Array>
          </mxGeometry>
        </mxCell>
        <mxCell id="epYoWbart29TKTmkjoGt-34" value="&lt;span data-teams=&quot;true&quot;&gt;Return FacilityID&lt;/span&gt;" style="edgeLabel;html=1;align=center;verticalAlign=middle;resizable=0;points=[];" vertex="1" connectable="0" parent="1">
          <mxGeometry x="2070" y="256" as="geometry" />
        </mxCell>
        <mxCell id="WJGQ-8GNV3ebrElYZgji-1" value="FromStringToFacility(OBNumber, UDLNumber, Name, MinimumPoolSize)" style="edgeLabel;html=1;align=center;verticalAlign=middle;resizable=0;points=[];" vertex="1" connectable="0" parent="1">
          <mxGeometry x="1104" y="171" as="geometry" />
        </mxCell>
        <mxCell id="RLtUXuXKWZB1a6xs3PF7-1" value="" style="endArrow=open;html=1;rounded=0;dashed=1;dashPattern=8 8;endFill=0;entryX=1.5;entryY=0.342;entryDx=0;entryDy=0;entryPerimeter=0;" edge="1" parent="1">
          <mxGeometry width="50" height="50" relative="1" as="geometry">
            <mxPoint x="1340" y="274.96000000000004" as="sourcePoint" />
            <mxPoint x="840" y="274.96000000000004" as="targetPoint" />
          </mxGeometry>
        </mxCell>
        <mxCell id="gqdGz9EBeC2640gCyb00-1" value="Success-message" style="edgeLabel;html=1;align=center;verticalAlign=middle;resizable=0;points=[];" vertex="1" connectable="0" parent="RLtUXuXKWZB1a6xs3PF7-1">
          <mxGeometry x="0.3083" y="1" relative="1" as="geometry">
            <mxPoint x="75" y="-11" as="offset" />
          </mxGeometry>
        </mxCell>
        <mxCell id="RLtUXuXKWZB1a6xs3PF7-3" value="" style="endArrow=classic;html=1;rounded=0;" edge="1" parent="1">
          <mxGeometry width="50" height="50" relative="1" as="geometry">
            <mxPoint x="835" y="347" as="sourcePoint" />
            <mxPoint x="1340" y="347" as="targetPoint" />
          </mxGeometry>
        </mxCell>
        <mxCell id="RLtUXuXKWZB1a6xs3PF7-4" value="FromStringToPermit(StartDate, EndDate, AllowedYearlyOverflowVolume, AllowedYearlyIncidents,&lt;div&gt;EquipmentRestriction, MaintenanceRestriction, MeasurementRestriction, AdditionalRestriction)&lt;/div&gt;" style="edgeLabel;html=1;align=center;verticalAlign=middle;resizable=0;points=[];" vertex="1" connectable="0" parent="1">
          <mxGeometry x="1090" y="330" as="geometry" />
        </mxCell>
        <mxCell id="RLtUXuXKWZB1a6xs3PF7-6" value="AddToPermitRepo(Permit)" style="edgeLabel;html=1;align=center;verticalAlign=middle;resizable=0;points=[];" vertex="1" connectable="0" parent="1">
          <mxGeometry x="1430" y="365" as="geometry">
            <mxPoint x="9" as="offset" />
          </mxGeometry>
        </mxCell>
        <mxCell id="RLtUXuXKWZB1a6xs3PF7-7" value="" style="endArrow=classic;html=1;rounded=0;" edge="1" parent="1">
          <mxGeometry width="50" height="50" relative="1" as="geometry">
            <mxPoint x="1350" y="373" as="sourcePoint" />
            <mxPoint x="1520.0000000000002" y="373" as="targetPoint" />
          </mxGeometry>
        </mxCell>
        <mxCell id="RLtUXuXKWZB1a6xs3PF7-10" value="" style="endArrow=classic;html=1;rounded=0;" edge="1" parent="1" target="MkTCwo_0pXft-BCtoq1T-6">
          <mxGeometry width="50" height="50" relative="1" as="geometry">
            <mxPoint x="1530" y="380" as="sourcePoint" />
            <mxPoint x="1770" y="380" as="targetPoint" />
          </mxGeometry>
        </mxCell>
        <mxCell id="RLtUXuXKWZB1a6xs3PF7-11" value="Add(Permit)" style="edgeLabel;html=1;align=center;verticalAlign=middle;resizable=0;points=[];" vertex="1" connectable="0" parent="RLtUXuXKWZB1a6xs3PF7-10">
          <mxGeometry x="-0.3552" y="-2" relative="1" as="geometry">
            <mxPoint x="-15" y="-12" as="offset" />
          </mxGeometry>
        </mxCell>
        <mxCell id="RLtUXuXKWZB1a6xs3PF7-12" value="" style="endArrow=classic;html=1;rounded=0;entryX=0;entryY=0;entryDx=0;entryDy=5;entryPerimeter=0;" edge="1" parent="1">
          <mxGeometry width="50" height="50" relative="1" as="geometry">
            <mxPoint x="1800" y="397" as="sourcePoint" />
            <mxPoint x="2325" y="397" as="targetPoint" />
            <Array as="points">
              <mxPoint x="1925" y="397" />
            </Array>
          </mxGeometry>
        </mxCell>
        <mxCell id="RLtUXuXKWZB1a6xs3PF7-13" value="&lt;span data-teams=&quot;true&quot;&gt;EXEC uspAddPermitByFacilityID(&lt;/span&gt;StartDate, EndDate,&amp;nbsp;&lt;div&gt;AllowedYearlyOverflowVolume, AllowedYearlyIncidents,&lt;/div&gt;&lt;div&gt;EquipmentRestriction, MaintenanceRestriction,&amp;nbsp;&lt;/div&gt;MeasurementRestriction, AdditionalRestriction)" style="edgeLabel;html=1;align=center;verticalAlign=middle;resizable=0;points=[];" vertex="1" connectable="0" parent="RLtUXuXKWZB1a6xs3PF7-12">
          <mxGeometry x="-0.3552" y="-2" relative="1" as="geometry">
            <mxPoint x="54" y="-32" as="offset" />
          </mxGeometry>
        </mxCell>
        <mxCell id="RLtUXuXKWZB1a6xs3PF7-14" value="" style="html=1;points=[[0,0,0,0,5],[0,1,0,0,-5],[1,0,0,0,5],[1,1,0,0,-5]];perimeter=orthogonalPerimeter;outlineConnect=0;targetShapes=umlLifeline;portConstraint=eastwest;newEdgeStyle={&quot;curved&quot;:0,&quot;rounded&quot;:0};" vertex="1" parent="1">
          <mxGeometry x="2325" y="394" width="10" height="30" as="geometry" />
        </mxCell>
        <mxCell id="MkTCwo_0pXft-BCtoq1T-2" value="" style="endArrow=classic;html=1;rounded=0;exitX=1.032;exitY=0.486;exitDx=0;exitDy=0;exitPerimeter=0;" edge="1" parent="1" source="MkTCwo_0pXft-BCtoq1T-8" target="epYoWbart29TKTmkjoGt-10">
          <mxGeometry width="50" height="50" relative="1" as="geometry">
            <mxPoint x="1270" y="573" as="sourcePoint" />
            <mxPoint x="1010" y="460" as="targetPoint" />
          </mxGeometry>
        </mxCell>
        <mxCell id="MkTCwo_0pXft-BCtoq1T-4" value=": PermitRepo" style="rounded=0;whiteSpace=wrap;html=1;" vertex="1" parent="1">
          <mxGeometry x="1740" y="70" width="120" height="60" as="geometry" />
        </mxCell>
        <mxCell id="MkTCwo_0pXft-BCtoq1T-5" value="" style="endArrow=none;dashed=1;html=1;rounded=0;entryX=0.409;entryY=0.964;entryDx=0;entryDy=0;entryPerimeter=0;" edge="1" parent="1">
          <mxGeometry width="50" height="50" relative="1" as="geometry">
            <mxPoint x="1800.46" y="582.16" as="sourcePoint" />
            <mxPoint x="1799.54" y="129.99999999999991" as="targetPoint" />
          </mxGeometry>
        </mxCell>
        <mxCell id="MkTCwo_0pXft-BCtoq1T-6" value="" style="html=1;points=[[0,0,0,0,5],[0,1,0,0,-5],[1,0,0,0,5],[1,1,0,0,-5]];perimeter=orthogonalPerimeter;outlineConnect=0;targetShapes=umlLifeline;portConstraint=eastwest;newEdgeStyle={&quot;curved&quot;:0,&quot;rounded&quot;:0};" vertex="1" parent="1">
          <mxGeometry x="1795" y="377.5" width="10" height="22.5" as="geometry" />
        </mxCell>
        <mxCell id="epYoWbart29TKTmkjoGt-1" value="" style="html=1;points=[[0,0,0,0,5],[0,1,0,0,-5],[1,0,0,0,5],[1,1,0,0,-5]];perimeter=orthogonalPerimeter;outlineConnect=0;targetShapes=umlLifeline;portConstraint=eastwest;newEdgeStyle={&quot;curved&quot;:0,&quot;rounded&quot;:0};" vertex="1" parent="1">
          <mxGeometry x="1655" y="225" width="10" height="45" as="geometry" />
        </mxCell>
        <mxCell id="MkTCwo_0pXft-BCtoq1T-8" value="From here SD &quot;openSummary&quot; executes" style="shape=note;whiteSpace=wrap;html=1;backgroundOutline=1;darkOpacity=0.05;" vertex="1" parent="1">
          <mxGeometry x="420" y="424" width="100" height="130" as="geometry" />
        </mxCell>
        <mxCell id="gqdGz9EBeC2640gCyb00-3" value="" style="edgeStyle=orthogonalEdgeStyle;rounded=0;orthogonalLoop=1;jettySize=auto;html=1;dashed=1;endArrow=none;endFill=0;" edge="1" parent="1" target="epYoWbart29TKTmkjoGt-10">
          <mxGeometry relative="1" as="geometry">
            <mxPoint x="826" y="640" as="targetPoint" />
            <mxPoint x="827.0000000000002" y="120" as="sourcePoint" />
            <Array as="points">
              <mxPoint x="830" y="120" />
            </Array>
          </mxGeometry>
        </mxCell>
        <mxCell id="epYoWbart29TKTmkjoGt-10" value="" style="html=1;points=[[0,0,0,0,5],[0,1,0,0,-5],[1,0,0,0,5],[1,1,0,0,-5]];perimeter=orthogonalPerimeter;outlineConnect=0;targetShapes=umlLifeline;portConstraint=eastwest;newEdgeStyle={&quot;curved&quot;:0,&quot;rounded&quot;:0};" vertex="1" parent="1">
          <mxGeometry x="825" y="150" width="10" height="380" as="geometry" />
        </mxCell>
        <mxCell id="epYoWbart29TKTmkjoGt-3" value=": CreateWindow" style="rounded=0;whiteSpace=wrap;html=1;" vertex="1" parent="1">
          <mxGeometry x="770" y="70" width="120" height="60" as="geometry" />
        </mxCell>
        <mxCell id="gqdGz9EBeC2640gCyb00-7" value="User" style="shape=umlActor;verticalLabelPosition=bottom;verticalAlign=top;html=1;" vertex="1" parent="1">
          <mxGeometry x="604" y="37" width="30" height="60" as="geometry" />
        </mxCell>
        <mxCell id="gqdGz9EBeC2640gCyb00-9" value="" style="endArrow=none;dashed=1;html=1;rounded=0;" edge="1" parent="1">
          <mxGeometry width="50" height="50" relative="1" as="geometry">
            <mxPoint x="620" y="640.5516736260776" as="sourcePoint" />
            <mxPoint x="620" y="121" as="targetPoint" />
          </mxGeometry>
        </mxCell>
        <mxCell id="gqdGz9EBeC2640gCyb00-10" value="" style="endArrow=classic;html=1;rounded=0;" edge="1" parent="1">
          <mxGeometry width="50" height="50" relative="1" as="geometry">
            <mxPoint x="620" y="335" as="sourcePoint" />
            <mxPoint x="825.0000000000002" y="335" as="targetPoint" />
          </mxGeometry>
        </mxCell>
        <mxCell id="gqdGz9EBeC2640gCyb00-11" value="createPermit" style="edgeLabel;html=1;align=center;verticalAlign=middle;resizable=0;points=[];" vertex="1" connectable="0" parent="gqdGz9EBeC2640gCyb00-10">
          <mxGeometry x="-0.3588" y="-3" relative="1" as="geometry">
            <mxPoint x="31" y="-13" as="offset" />
          </mxGeometry>
        </mxCell>
        <mxCell id="gqdGz9EBeC2640gCyb00-14" value="Opt." style="text;html=1;align=center;verticalAlign=middle;resizable=0;points=[];autosize=1;strokeColor=none;fillColor=none;" vertex="1" parent="1">
          <mxGeometry x="559" y="286" width="50" height="30" as="geometry" />
        </mxCell>
        <mxCell id="gqdGz9EBeC2640gCyb00-16" value="&lt;font style=&quot;font-size: 8px;&quot;&gt;&lt;font style=&quot;&quot;&gt;[&quot;btn_AddPermit&quot;&amp;nbsp;&lt;/font&gt;&lt;span style=&quot;background-color: initial;&quot;&gt;clicked]&lt;/span&gt;&lt;/font&gt;" style="text;html=1;align=center;verticalAlign=middle;resizable=1;points=[];autosize=0;strokeColor=none;fillColor=default;imageWidth=24;imageHeight=24;" vertex="1" parent="1">
          <mxGeometry x="606" y="296" width="80" height="10" as="geometry" />
        </mxCell>
        <mxCell id="gqdGz9EBeC2640gCyb00-18" value="" style="endArrow=none;html=1;rounded=0;" edge="1" parent="1">
          <mxGeometry width="50" height="50" relative="1" as="geometry">
            <mxPoint x="560" y="310" as="sourcePoint" />
            <mxPoint x="600" y="310" as="targetPoint" />
          </mxGeometry>
        </mxCell>
        <mxCell id="gqdGz9EBeC2640gCyb00-19" value="" style="endArrow=none;html=1;rounded=0;" edge="1" parent="1">
          <mxGeometry width="50" height="50" relative="1" as="geometry">
            <mxPoint x="600" y="310" as="sourcePoint" />
            <mxPoint x="600" y="290" as="targetPoint" />
          </mxGeometry>
        </mxCell>
      </root>
    </mxGraphModel>
  </diagram>
</mxfile>
